<?xml version="1.0" encoding="utf-8"?>
<!-- Generator: Adobe Illustrator 18.0.0, SVG Export Plug-In . SVG Version: 6.00 Build 0)  -->
<!DOCTYPE svg PUBLIC "-//W3C//DTD SVG 1.1//EN" "http://www.w3.org/Graphics/SVG/1.1/DTD/svg11.dtd">
<svg version="1.1" id="Layer_1" xmlns="http://www.w3.org/2000/svg" xmlns:xlink="http://www.w3.org/1999/xlink" x="0px" y="0px"
	 viewBox="0 0 485 510" enable-background="new 0 0 485 510" xml:space="preserve">
<g>
	<defs>
		<rect id="SVGID_1_" width="485" height="510"/>
	</defs>
	<clipPath id="SVGID_2_">
		<use xlink:href="#SVGID_1_"  overflow="visible"/>
	</clipPath>
	<polygon clip-path="url(#SVGID_2_)" fill="#E7E7E7" points="-17,30 0.3,0 17.6,30 	"/>
	<polygon clip-path="url(#SVGID_2_)" fill="#F3F6F5" points="35,0 17.6,30 0.3,0 	"/>
	<polygon clip-path="url(#SVGID_2_)" fill="#EFF2F1" points="17.6,30 35,0 52.3,30 	"/>
	<polygon clip-path="url(#SVGID_2_)" fill="#EBEEED" points="69.6,0 52.3,30 35,0 	"/>
	<polygon clip-path="url(#SVGID_2_)" fill="#F1F3F2" points="52.3,30 69.6,0 86.9,30 	"/>
	<polygon clip-path="url(#SVGID_2_)" fill="#E9ECEB" points="104.2,0 86.9,30 69.6,0 	"/>
	<polygon clip-path="url(#SVGID_2_)" fill="#EAECEB" points="86.9,30 104.2,0 121.6,30 	"/>
	<polygon clip-path="url(#SVGID_2_)" fill="#F2F3F3" points="138.9,0 121.6,30 104.2,0 	"/>
	<polygon clip-path="url(#SVGID_2_)" fill="#F2F4F3" points="121.6,30 138.9,0 156.2,30 	"/>
	<polygon clip-path="url(#SVGID_2_)" fill="#F2F4F3" points="173.5,0 156.2,30 138.9,0 	"/>
	<polygon clip-path="url(#SVGID_2_)" fill="#F4F6F5" points="156.2,30 173.5,0 190.8,30 	"/>
	<polygon clip-path="url(#SVGID_2_)" fill="#EEF0EF" points="208.2,0 190.8,30 173.5,0 	"/>
	<polygon clip-path="url(#SVGID_2_)" fill="#F4F6F5" points="190.8,30 208.2,0 225.5,30 	"/>
	<polygon clip-path="url(#SVGID_2_)" fill="#E5E8E8" points="242.8,0 225.5,30 208.2,0 	"/>
	<polygon clip-path="url(#SVGID_2_)" fill="#EDF0EF" points="225.5,30 242.8,0 260.1,30 	"/>
	<polygon clip-path="url(#SVGID_2_)" fill="#EDF1F0" points="277.4,0 260.1,30 242.8,0 	"/>
	<polygon clip-path="url(#SVGID_2_)" fill="#F1F3F2" points="260.1,30 277.4,0 294.8,30 	"/>
	<polygon clip-path="url(#SVGID_2_)" fill="#F1F4F3" points="312.1,0 294.8,30 277.4,0 	"/>
	<polygon clip-path="url(#SVGID_2_)" fill="#F6F8F7" points="294.8,30 312.1,0 329.4,30 	"/>
	<polygon clip-path="url(#SVGID_2_)" fill="#F3F4F3" points="346.7,0 329.4,30 312.1,0 	"/>
	<polygon clip-path="url(#SVGID_2_)" fill="#FBFDFB" points="329.4,30 346.7,0 364,30 	"/>
	<polygon clip-path="url(#SVGID_2_)" fill="#F0F3F2" points="381.4,0 364,30 346.7,0 	"/>
	<polygon clip-path="url(#SVGID_2_)" fill="#F7F9F8" points="364,30 381.4,0 398.7,30 	"/>
	<polygon clip-path="url(#SVGID_2_)" fill="#F4F5F5" points="416,0 398.7,30 381.4,0 	"/>
	<polygon clip-path="url(#SVGID_2_)" fill="#F2F2F2" points="398.7,30 416,0 433.3,30 	"/>
	<polygon clip-path="url(#SVGID_2_)" fill="#F1F1F1" points="450.6,0 433.3,30 416,0 	"/>
	<polygon clip-path="url(#SVGID_2_)" fill="#F7F7F7" points="433.3,30 450.6,0 468,30 	"/>
	<polygon clip-path="url(#SVGID_2_)" fill="#F5F6F6" points="485.3,0 468,30 450.6,0 	"/>
	<polygon clip-path="url(#SVGID_2_)" fill="#CFCFCF" points="468,30 485.3,0 502.6,30 	"/>
	<polygon clip-path="url(#SVGID_2_)" fill="#D7D8D8" points="17.6,30 0.3,60 -17,30 	"/>
	<polygon clip-path="url(#SVGID_2_)" fill="#E9EBEB" points="0.3,60 17.6,30 35,60 	"/>
	<polygon clip-path="url(#SVGID_2_)" fill="#EFEFEF" points="52.3,30 35,60 17.6,30 	"/>
	<polygon clip-path="url(#SVGID_2_)" fill="#F4F6F5" points="35,60 52.3,30 69.6,60 	"/>
	<polygon clip-path="url(#SVGID_2_)" fill="#E6E8E8" points="86.9,30 69.6,60 52.3,30 	"/>
	<polygon clip-path="url(#SVGID_2_)" fill="#EAEEEC" points="69.6,60 86.9,30 104.2,60 	"/>
	<polygon clip-path="url(#SVGID_2_)" fill="#E5E7E6" points="121.6,30 104.2,60 86.9,30 	"/>
	<polygon clip-path="url(#SVGID_2_)" fill="#EEEFEF" points="104.2,60 121.6,30 138.9,60 	"/>
	<polygon clip-path="url(#SVGID_2_)" fill="#F6F7F7" points="156.2,30 138.9,60 121.6,30 	"/>
	<polygon clip-path="url(#SVGID_2_)" fill="#F4F6F5" points="138.9,60 156.2,30 173.5,60 	"/>
	<polygon clip-path="url(#SVGID_2_)" fill="#EEEFEF" points="190.8,30 173.5,60 156.2,30 	"/>
	<polygon clip-path="url(#SVGID_2_)" fill="#E0E3E2" points="173.5,60 190.8,30 208.2,60 	"/>
	<polygon clip-path="url(#SVGID_2_)" fill="#EBEEED" points="225.5,30 208.2,60 190.8,30 	"/>
	<polygon clip-path="url(#SVGID_2_)" fill="#E7EAE9" points="208.2,60 225.5,30 242.8,60 	"/>
	<polygon clip-path="url(#SVGID_2_)" fill="#EFF1F1" points="260.1,30 242.8,60 225.5,30 	"/>
	<polygon clip-path="url(#SVGID_2_)" fill="#DCDEDE" points="242.8,60 260.1,30 277.4,60 	"/>
	<polygon clip-path="url(#SVGID_2_)" fill="#EBEDED" points="294.8,30 277.4,60 260.1,30 	"/>
	<polygon clip-path="url(#SVGID_2_)" fill="#ECEEED" points="277.4,60 294.8,30 312.1,60 	"/>
	<polygon clip-path="url(#SVGID_2_)" fill="#E8EAE9" points="329.4,30 312.1,60 294.8,30 	"/>
	<polygon clip-path="url(#SVGID_2_)" fill="#EFF0EF" points="312.1,60 329.4,30 346.7,60 	"/>
	<polygon clip-path="url(#SVGID_2_)" fill="#EEF0EF" points="364,30 346.7,60 329.4,30 	"/>
	<polygon clip-path="url(#SVGID_2_)" fill="#F1F3F2" points="346.7,60 364,30 381.4,60 	"/>
	<polygon clip-path="url(#SVGID_2_)" fill="#F2F3F2" points="398.7,30 381.4,60 364,30 	"/>
	<polygon clip-path="url(#SVGID_2_)" fill="#F3F3F3" points="381.4,60 398.7,30 416,60 	"/>
	<polygon clip-path="url(#SVGID_2_)" fill="#EFEFEF" points="433.3,30 416,60 398.7,30 	"/>
	<polygon clip-path="url(#SVGID_2_)" fill="#F4F4F4" points="416,60 433.3,30 450.6,60 	"/>
	<polygon clip-path="url(#SVGID_2_)" fill="#EEEEEE" points="468,30 450.6,60 433.3,30 	"/>
	<polygon clip-path="url(#SVGID_2_)" fill="#F8F8F8" points="450.6,60 468,30 485.3,60 	"/>
	<polygon clip-path="url(#SVGID_2_)" fill="#ECECEC" points="502.6,30 485.3,60 468,30 	"/>
	<polygon clip-path="url(#SVGID_2_)" fill="#DADCDC" points="-17,90 0.3,60 17.6,90 	"/>
	<polygon clip-path="url(#SVGID_2_)" fill="#DBDDDC" points="35,60 17.6,90 0.3,60 	"/>
	<polygon clip-path="url(#SVGID_2_)" fill="#DFE1E0" points="17.6,90 35,60 52.3,90 	"/>
	<polygon clip-path="url(#SVGID_2_)" fill="#E1E3E2" points="69.6,60 52.3,90 35,60 	"/>
	<polygon clip-path="url(#SVGID_2_)" fill="#E1E4E3" points="52.3,90 69.6,60 86.9,90 	"/>
	<polygon clip-path="url(#SVGID_2_)" fill="#EAEDEC" points="104.2,60 86.9,90 69.6,60 	"/>
	<polygon clip-path="url(#SVGID_2_)" fill="#EDF0EF" points="86.9,90 104.2,60 121.6,90 	"/>
	<polygon clip-path="url(#SVGID_2_)" fill="#E9ECEB" points="138.9,60 121.6,90 104.2,60 	"/>
	<polygon clip-path="url(#SVGID_2_)" fill="#E7E9E8" points="121.6,90 138.9,60 156.2,90 	"/>
	<polygon clip-path="url(#SVGID_2_)" fill="#F9FAFA" points="173.5,60 156.2,90 138.9,60 	"/>
	<polygon clip-path="url(#SVGID_2_)" fill="#EEEFEF" points="156.2,90 173.5,60 190.8,90 	"/>
	<polygon clip-path="url(#SVGID_2_)" fill="#F4F5F4" points="208.2,60 190.8,90 173.5,60 	"/>
	<polygon clip-path="url(#SVGID_2_)" fill="#DFE0E0" points="190.8,90 208.2,60 225.5,90 	"/>
	<polygon clip-path="url(#SVGID_2_)" fill="#F0F2F3" points="242.8,60 225.5,90 208.2,60 	"/>
	<polygon clip-path="url(#SVGID_2_)" fill="#F2F5F4" points="225.5,90 242.8,60 260.1,90 	"/>
	<polygon clip-path="url(#SVGID_2_)" fill="#EFF1F1" points="277.4,60 260.1,90 242.8,60 	"/>
	<polygon clip-path="url(#SVGID_2_)" fill="#F6F7F7" points="260.1,90 277.4,60 294.8,90 	"/>
	<polygon clip-path="url(#SVGID_2_)" fill="#F8FAF9" points="312.1,60 294.8,90 277.4,60 	"/>
	<polygon clip-path="url(#SVGID_2_)" fill="#F7F8F8" points="294.8,90 312.1,60 329.4,90 	"/>
	<polygon clip-path="url(#SVGID_2_)" fill="#E6E6E6" points="346.7,60 329.4,90 312.1,60 	"/>
	<polygon clip-path="url(#SVGID_2_)" fill="#EBEDED" points="329.4,90 346.7,60 364,90 	"/>
	<polygon clip-path="url(#SVGID_2_)" fill="#F3F4F3" points="381.4,60 364,90 346.7,60 	"/>
	<polygon clip-path="url(#SVGID_2_)" fill="#E5E6E5" points="364,90 381.4,60 398.7,90 	"/>
	<polygon clip-path="url(#SVGID_2_)" fill="#F3F4F4" points="416,60 398.7,90 381.4,60 	"/>
	<polygon clip-path="url(#SVGID_2_)" fill="#E9E9E9" points="398.7,90 416,60 433.3,90 	"/>
	<polygon clip-path="url(#SVGID_2_)" fill="#E6E7E7" points="450.6,60 433.3,90 416,60 	"/>
	<polygon clip-path="url(#SVGID_2_)" fill="#E6E6E6" points="433.3,90 450.6,60 468,90 	"/>
	<polygon clip-path="url(#SVGID_2_)" fill="#DFDFDF" points="485.3,60 468,90 450.6,60 	"/>
	<polygon clip-path="url(#SVGID_2_)" fill="#F1F1F1" points="468,90 485.3,60 502.6,90 	"/>
	<polygon clip-path="url(#SVGID_2_)" fill="#EDEEEE" points="17.6,90 0.3,120 -17,90 	"/>
	<polygon clip-path="url(#SVGID_2_)" fill="#EBEDEC" points="0.3,120 17.6,90 35,120 	"/>
	<polygon clip-path="url(#SVGID_2_)" fill="#EBECEC" points="52.3,90 35,120 17.6,90 	"/>
	<polygon clip-path="url(#SVGID_2_)" fill="#E8EBEA" points="35,120 52.3,90 69.6,120 	"/>
	<polygon clip-path="url(#SVGID_2_)" fill="#E4E6E6" points="86.9,90 69.6,120 52.3,90 	"/>
	<polygon clip-path="url(#SVGID_2_)" fill="#E7E9E8" points="69.6,120 86.9,90 104.2,120 	"/>
	<polygon clip-path="url(#SVGID_2_)" fill="#EEF0EF" points="121.6,90 104.2,120 86.9,90 	"/>
	<polygon clip-path="url(#SVGID_2_)" fill="#EEF1F0" points="104.2,120 121.6,90 138.9,120 	"/>
	<polygon clip-path="url(#SVGID_2_)" fill="#F0F2F1" points="156.2,90 138.9,120 121.6,90 	"/>
	<polygon clip-path="url(#SVGID_2_)" fill="#F3F4F4" points="138.9,120 156.2,90 173.5,120 	"/>
	<polygon clip-path="url(#SVGID_2_)" fill="#EEF0F0" points="190.8,90 173.5,120 156.2,90 	"/>
	<polygon clip-path="url(#SVGID_2_)" fill="#F4F5F5" points="173.5,120 190.8,90 208.2,120 	"/>
	<polygon clip-path="url(#SVGID_2_)" fill="#F1F3F4" points="225.5,90 208.2,120 190.8,90 	"/>
	<polygon clip-path="url(#SVGID_2_)" fill="#F0F2F4" points="208.2,120 225.5,90 242.8,120 	"/>
	<polygon clip-path="url(#SVGID_2_)" fill="#F2F4F6" points="260.1,90 242.8,120 225.5,90 	"/>
	<polygon clip-path="url(#SVGID_2_)" fill="#EEF0F1" points="242.8,120 260.1,90 277.4,120 	"/>
	<polygon clip-path="url(#SVGID_2_)" fill="#DFE1E1" points="294.8,90 277.4,120 260.1,90 	"/>
	<polygon clip-path="url(#SVGID_2_)" fill="#E4E6E7" points="277.4,120 294.8,90 312.1,120 	"/>
	<polygon clip-path="url(#SVGID_2_)" fill="#E8EBEA" points="329.4,90 312.1,120 294.8,90 	"/>
	<polygon clip-path="url(#SVGID_2_)" fill="#EDF0EF" points="312.1,120 329.4,90 346.7,120 	"/>
	<polygon clip-path="url(#SVGID_2_)" fill="#EAECEB" points="364,90 346.7,120 329.4,90 	"/>
	<polygon clip-path="url(#SVGID_2_)" fill="#EDEFEE" points="346.7,120 364,90 381.4,120 	"/>
	<polygon clip-path="url(#SVGID_2_)" fill="#EFF1F0" points="398.7,90 381.4,120 364,90 	"/>
	<polygon clip-path="url(#SVGID_2_)" fill="#F8F8F8" points="381.4,120 398.7,90 416,120 	"/>
	<polygon clip-path="url(#SVGID_2_)" fill="#F6F7F7" points="433.3,90 416,120 398.7,90 	"/>
	<polygon clip-path="url(#SVGID_2_)" fill="#F0F1F0" points="416,120 433.3,90 450.6,120 	"/>
	<polygon clip-path="url(#SVGID_2_)" fill="#F7F8F8" points="468,90 450.6,120 433.3,90 	"/>
	<polygon clip-path="url(#SVGID_2_)" fill="#DEDFDE" points="450.6,120 468,90 485.3,120 	"/>
	<polygon clip-path="url(#SVGID_2_)" fill="#DCDDDD" points="502.6,90 485.3,120 468,90 	"/>
	<polygon clip-path="url(#SVGID_2_)" fill="#E5E6E6" points="-17,150 0.3,120 17.6,150 	"/>
	<polygon clip-path="url(#SVGID_2_)" fill="#E7E9E9" points="35,120 17.6,150 0.3,120 	"/>
	<polygon clip-path="url(#SVGID_2_)" fill="#E3E5E4" points="17.6,150 35,120 52.3,150 	"/>
	<polygon clip-path="url(#SVGID_2_)" fill="#E0E3E2" points="69.6,120 52.3,150 35,120 	"/>
	<polygon clip-path="url(#SVGID_2_)" fill="#E6E9E8" points="52.3,150 69.6,120 86.9,150 	"/>
	<polygon clip-path="url(#SVGID_2_)" fill="#E8EBEA" points="104.2,120 86.9,150 69.6,120 	"/>
	<polygon clip-path="url(#SVGID_2_)" fill="#EFF2F1" points="86.9,150 104.2,120 121.6,150 	"/>
	<polygon clip-path="url(#SVGID_2_)" fill="#EFF1F0" points="138.9,120 121.6,150 104.2,120 	"/>
	<polygon clip-path="url(#SVGID_2_)" fill="#E7E9E8" points="121.6,150 138.9,120 156.2,150 	"/>
	<polygon clip-path="url(#SVGID_2_)" fill="#E4E7E6" points="173.5,120 156.2,150 138.9,120 	"/>
	<polygon clip-path="url(#SVGID_2_)" fill="#ECEEEE" points="156.2,150 173.5,120 190.8,150 	"/>
	<polygon clip-path="url(#SVGID_2_)" fill="#EEF1F0" points="208.2,120 190.8,150 173.5,120 	"/>
	<polygon clip-path="url(#SVGID_2_)" fill="#EBEFEF" points="190.8,150 208.2,120 225.5,150 	"/>
	<polygon clip-path="url(#SVGID_2_)" fill="#E3E6E8" points="242.8,120 225.5,150 208.2,120 	"/>
	<polygon clip-path="url(#SVGID_2_)" fill="#E9EBEC" points="225.5,150 242.8,120 260.1,150 	"/>
	<polygon clip-path="url(#SVGID_2_)" fill="#F6F7F8" points="277.4,120 260.1,150 242.8,120 	"/>
	<polygon clip-path="url(#SVGID_2_)" fill="#FBFDFD" points="260.1,150 277.4,120 294.8,150 	"/>
	<polygon clip-path="url(#SVGID_2_)" fill="#F4F7F6" points="312.1,120 294.8,150 277.4,120 	"/>
	<polygon clip-path="url(#SVGID_2_)" fill="#F1F4F3" points="294.8,150 312.1,120 329.4,150 	"/>
	<polygon clip-path="url(#SVGID_2_)" fill="#F3F5F5" points="346.7,120 329.4,150 312.1,120 	"/>
	<polygon clip-path="url(#SVGID_2_)" fill="#EBEDED" points="329.4,150 346.7,120 364,150 	"/>
	<polygon clip-path="url(#SVGID_2_)" fill="#F0F2F1" points="381.4,120 364,150 346.7,120 	"/>
	<polygon clip-path="url(#SVGID_2_)" fill="#EEF0EF" points="364,150 381.4,120 398.7,150 	"/>
	<polygon clip-path="url(#SVGID_2_)" fill="#E6E6E6" points="416,120 398.7,150 381.4,120 	"/>
	<polygon clip-path="url(#SVGID_2_)" fill="#F7F8F8" points="398.7,150 416,120 433.3,150 	"/>
	<polygon clip-path="url(#SVGID_2_)" fill="#F6F6F6" points="450.6,120 433.3,150 416,120 	"/>
	<polygon clip-path="url(#SVGID_2_)" fill="#F7F7F7" points="433.3,150 450.6,120 468,150 	"/>
	<polygon clip-path="url(#SVGID_2_)" fill="#F7F7F7" points="485.3,120 468,150 450.6,120 	"/>
	<polygon clip-path="url(#SVGID_2_)" fill="#FFFFFF" points="468,150 485.3,120 502.6,150 	"/>
	<polygon clip-path="url(#SVGID_2_)" fill="#D9D8D8" points="17.6,150 0.3,180 -17,150 	"/>
	<polygon clip-path="url(#SVGID_2_)" fill="#E4E7E6" points="0.3,180 17.6,150 35,180 	"/>
	<polygon clip-path="url(#SVGID_2_)" fill="#E6E7E7" points="52.3,150 35,180 17.6,150 	"/>
	<polygon clip-path="url(#SVGID_2_)" fill="#E2E3E3" points="35,180 52.3,150 69.6,180 	"/>
	<polygon clip-path="url(#SVGID_2_)" fill="#E3E5E5" points="86.9,150 69.6,180 52.3,150 	"/>
	<polygon clip-path="url(#SVGID_2_)" fill="#E6E7E7" points="69.6,180 86.9,150 104.2,180 	"/>
	<polygon clip-path="url(#SVGID_2_)" fill="#E2E3E3" points="121.6,150 104.2,180 86.9,150 	"/>
	<polygon clip-path="url(#SVGID_2_)" fill="#E3E4E3" points="104.2,180 121.6,150 138.9,180 	"/>
	<polygon clip-path="url(#SVGID_2_)" fill="#E4E6E5" points="156.2,150 138.9,180 121.6,150 	"/>
	<polygon clip-path="url(#SVGID_2_)" fill="#E9EBEA" points="138.9,180 156.2,150 173.5,180 	"/>
	<polygon clip-path="url(#SVGID_2_)" fill="#EDEFEF" points="190.8,150 173.5,180 156.2,150 	"/>
	<polygon clip-path="url(#SVGID_2_)" fill="#EFF2F1" points="173.5,180 190.8,150 208.2,180 	"/>
	<polygon clip-path="url(#SVGID_2_)" fill="#EBEEEE" points="225.5,150 208.2,180 190.8,150 	"/>
	<polygon clip-path="url(#SVGID_2_)" fill="#EBEDEF" points="208.2,180 225.5,150 242.8,180 	"/>
	<polygon clip-path="url(#SVGID_2_)" fill="#DADBDD" points="260.1,150 242.8,180 225.5,150 	"/>
	<polygon clip-path="url(#SVGID_2_)" fill="#E2E5E4" points="242.8,180 260.1,150 277.4,180 	"/>
	<polygon clip-path="url(#SVGID_2_)" fill="#DBDCDC" points="294.8,150 277.4,180 260.1,150 	"/>
	<polygon clip-path="url(#SVGID_2_)" fill="#EBEEED" points="277.4,180 294.8,150 312.1,180 	"/>
	<polygon clip-path="url(#SVGID_2_)" fill="#E6E8E8" points="329.4,150 312.1,180 294.8,150 	"/>
	<polygon clip-path="url(#SVGID_2_)" fill="#F8FAF9" points="312.1,180 329.4,150 346.7,180 	"/>
	<polygon clip-path="url(#SVGID_2_)" fill="#F7F9F9" points="364,150 346.7,180 329.4,150 	"/>
	<polygon clip-path="url(#SVGID_2_)" fill="#F7F9F8" points="346.7,180 364,150 381.4,180 	"/>
	<polygon clip-path="url(#SVGID_2_)" fill="#F3F5F4" points="398.7,150 381.4,180 364,150 	"/>
	<polygon clip-path="url(#SVGID_2_)" fill="#F1F3F2" points="381.4,180 398.7,150 416,180 	"/>
	<polygon clip-path="url(#SVGID_2_)" fill="#EEF0EF" points="433.3,150 416,180 398.7,150 	"/>
	<polygon clip-path="url(#SVGID_2_)" fill="#DFE0E0" points="416,180 433.3,150 450.6,180 	"/>
	<polygon clip-path="url(#SVGID_2_)" fill="#E4E4E4" points="468,150 450.6,180 433.3,150 	"/>
	<polygon clip-path="url(#SVGID_2_)" fill="#E8E8E8" points="450.6,180 468,150 485.3,180 	"/>
	<polygon clip-path="url(#SVGID_2_)" fill="#EBEBEB" points="502.6,150 485.3,180 468,150 	"/>
	<polygon clip-path="url(#SVGID_2_)" fill="#E7E7E7" points="-17,210 0.3,180 17.6,210 	"/>
	<polygon clip-path="url(#SVGID_2_)" fill="#E0E2E1" points="35,180 17.6,210 0.3,180 	"/>
	<polygon clip-path="url(#SVGID_2_)" fill="#E9EAEA" points="17.6,210 35,180 52.3,210 	"/>
	<polygon clip-path="url(#SVGID_2_)" fill="#E6E7E7" points="69.6,180 52.3,210 35,180 	"/>
	<polygon clip-path="url(#SVGID_2_)" fill="#D9DADA" points="52.3,210 69.6,180 86.9,210 	"/>
	<polygon clip-path="url(#SVGID_2_)" fill="#E1E4E5" points="104.2,180 86.9,210 69.6,180 	"/>
	<polygon clip-path="url(#SVGID_2_)" fill="#EDEFEF" points="86.9,210 104.2,180 121.6,210 	"/>
	<polygon clip-path="url(#SVGID_2_)" fill="#DADCDC" points="138.9,180 121.6,210 104.2,180 	"/>
	<polygon clip-path="url(#SVGID_2_)" fill="#DADDDC" points="121.6,210 138.9,180 156.2,210 	"/>
	<polygon clip-path="url(#SVGID_2_)" fill="#ECEEED" points="173.5,180 156.2,210 138.9,180 	"/>
	<polygon clip-path="url(#SVGID_2_)" fill="#DDDFDF" points="156.2,210 173.5,180 190.8,210 	"/>
	<polygon clip-path="url(#SVGID_2_)" fill="#EBEDEE" points="208.2,180 190.8,210 173.5,180 	"/>
	<polygon clip-path="url(#SVGID_2_)" fill="#ECEEEE" points="190.8,210 208.2,180 225.5,210 	"/>
	<polygon clip-path="url(#SVGID_2_)" fill="#EAECEE" points="242.8,180 225.5,210 208.2,180 	"/>
	<polygon clip-path="url(#SVGID_2_)" fill="#ECEEF0" points="225.5,210 242.8,180 260.1,210 	"/>
	<polygon clip-path="url(#SVGID_2_)" fill="#E9EBEC" points="277.4,180 260.1,210 242.8,180 	"/>
	<polygon clip-path="url(#SVGID_2_)" fill="#E4E6E8" points="260.1,210 277.4,180 294.8,210 	"/>
	<polygon clip-path="url(#SVGID_2_)" fill="#EBEDEE" points="312.1,180 294.8,210 277.4,180 	"/>
	<polygon clip-path="url(#SVGID_2_)" fill="#FDFEFE" points="294.8,210 312.1,180 329.4,210 	"/>
	<polygon clip-path="url(#SVGID_2_)" fill="#EAECEB" points="346.7,180 329.4,210 312.1,180 	"/>
	<polygon clip-path="url(#SVGID_2_)" fill="#F3F5F4" points="329.4,210 346.7,180 364,210 	"/>
	<polygon clip-path="url(#SVGID_2_)" fill="#EDF0EF" points="381.4,180 364,210 346.7,180 	"/>
	<polygon clip-path="url(#SVGID_2_)" fill="#EFF1F0" points="364,210 381.4,180 398.7,210 	"/>
	<polygon clip-path="url(#SVGID_2_)" fill="#F0F2F2" points="416,180 398.7,210 381.4,180 	"/>
	<polygon clip-path="url(#SVGID_2_)" fill="#F6F8F7" points="398.7,210 416,180 433.3,210 	"/>
	<polygon clip-path="url(#SVGID_2_)" fill="#F5F7F7" points="450.6,180 433.3,210 416,180 	"/>
	<polygon clip-path="url(#SVGID_2_)" fill="#EDEDED" points="433.3,210 450.6,180 468,210 	"/>
	<polygon clip-path="url(#SVGID_2_)" fill="#E9E9E9" points="485.3,180 468,210 450.6,180 	"/>
	<polygon clip-path="url(#SVGID_2_)" fill="#EAEAEA" points="468,210 485.3,180 502.6,210 	"/>
	<polygon clip-path="url(#SVGID_2_)" fill="#E4E5E6" points="17.6,210 0.3,240 -17,210 	"/>
	<polygon clip-path="url(#SVGID_2_)" fill="#E0E3E2" points="0.3,240 17.6,210 35,240 	"/>
	<polygon clip-path="url(#SVGID_2_)" fill="#E0E1E1" points="52.3,210 35,240 17.6,210 	"/>
	<polygon clip-path="url(#SVGID_2_)" fill="#E6E7E7" points="35,240 52.3,210 69.6,240 	"/>
	<polygon clip-path="url(#SVGID_2_)" fill="#F0F3F3" points="86.9,210 69.6,240 52.3,210 	"/>
	<polygon clip-path="url(#SVGID_2_)" fill="#E9ECED" points="69.6,240 86.9,210 104.2,240 	"/>
	<polygon clip-path="url(#SVGID_2_)" fill="#E7EAE9" points="121.6,210 104.2,240 86.9,210 	"/>
	<polygon clip-path="url(#SVGID_2_)" fill="#F2F4F5" points="104.2,240 121.6,210 138.9,240 	"/>
	<polygon clip-path="url(#SVGID_2_)" fill="#F2F4F5" points="156.2,210 138.9,240 121.6,210 	"/>
	<polygon clip-path="url(#SVGID_2_)" fill="#F3F5F6" points="138.9,240 156.2,210 173.5,240 	"/>
	<polygon clip-path="url(#SVGID_2_)" fill="#F3F5F6" points="190.8,210 173.5,240 156.2,210 	"/>
	<polygon clip-path="url(#SVGID_2_)" fill="#E6E9E9" points="173.5,240 190.8,210 208.2,240 	"/>
	<polygon clip-path="url(#SVGID_2_)" fill="#ECEEEF" points="225.5,210 208.2,240 190.8,210 	"/>
	<polygon clip-path="url(#SVGID_2_)" fill="#EAECED" points="208.2,240 225.5,210 242.8,240 	"/>
	<polygon clip-path="url(#SVGID_2_)" fill="#F7F9FB" points="260.1,210 242.8,240 225.5,210 	"/>
	<polygon clip-path="url(#SVGID_2_)" fill="#F2F4F6" points="242.8,240 260.1,210 277.4,240 	"/>
	<polygon clip-path="url(#SVGID_2_)" fill="#E6E8EA" points="294.8,210 277.4,240 260.1,210 	"/>
	<polygon clip-path="url(#SVGID_2_)" fill="#E8EAEB" points="277.4,240 294.8,210 312.1,240 	"/>
	<polygon clip-path="url(#SVGID_2_)" fill="#ECEFEE" points="329.4,210 312.1,240 294.8,210 	"/>
	<polygon clip-path="url(#SVGID_2_)" fill="#FEFFFE" points="312.1,240 329.4,210 346.7,240 	"/>
	<polygon clip-path="url(#SVGID_2_)" fill="#F9FBFA" points="364,210 346.7,240 329.4,210 	"/>
	<polygon clip-path="url(#SVGID_2_)" fill="#F2F3F3" points="346.7,240 364,210 381.4,240 	"/>
	<polygon clip-path="url(#SVGID_2_)" fill="#F4F5F5" points="398.7,210 381.4,240 364,210 	"/>
	<polygon clip-path="url(#SVGID_2_)" fill="#F9FAFA" points="381.4,240 398.7,210 416,240 	"/>
	<polygon clip-path="url(#SVGID_2_)" fill="#F9F9F9" points="433.3,210 416,240 398.7,210 	"/>
	<polygon clip-path="url(#SVGID_2_)" fill="#F9F9F9" points="416,240 433.3,210 450.6,240 	"/>
	<polygon clip-path="url(#SVGID_2_)" fill="#EFEFEF" points="468,210 450.6,240 433.3,210 	"/>
	<polygon clip-path="url(#SVGID_2_)" fill="#EAEAEA" points="450.6,240 468,210 485.3,240 	"/>
	<polygon clip-path="url(#SVGID_2_)" fill="#E9E9E9" points="502.6,210 485.3,240 468,210 	"/>
	<polygon clip-path="url(#SVGID_2_)" fill="#E1E2E2" points="-17,270 0.3,240 17.6,270 	"/>
	<polygon clip-path="url(#SVGID_2_)" fill="#E6E8E8" points="35,240 17.6,270 0.3,240 	"/>
	<polygon clip-path="url(#SVGID_2_)" fill="#DEDFDF" points="17.6,270 35,240 52.3,270 	"/>
	<polygon clip-path="url(#SVGID_2_)" fill="#E7EAE9" points="69.6,240 52.3,270 35,240 	"/>
	<polygon clip-path="url(#SVGID_2_)" fill="#F3F5F5" points="52.3,270 69.6,240 86.9,270 	"/>
	<polygon clip-path="url(#SVGID_2_)" fill="#EBEEEE" points="104.2,240 86.9,270 69.6,240 	"/>
	<polygon clip-path="url(#SVGID_2_)" fill="#EFF1F1" points="86.9,270 104.2,240 121.6,270 	"/>
	<polygon clip-path="url(#SVGID_2_)" fill="#F0F2F3" points="138.9,240 121.6,270 104.2,240 	"/>
	<polygon clip-path="url(#SVGID_2_)" fill="#EAECED" points="121.6,270 138.9,240 156.2,270 	"/>
	<polygon clip-path="url(#SVGID_2_)" fill="#ECECED" points="173.5,240 156.2,270 138.9,240 	"/>
	<polygon clip-path="url(#SVGID_2_)" fill="#E2E4E5" points="156.2,270 173.5,240 190.8,270 	"/>
	<polygon clip-path="url(#SVGID_2_)" fill="#E7EAEA" points="208.2,240 190.8,270 173.5,240 	"/>
	<polygon clip-path="url(#SVGID_2_)" fill="#E6E8E9" points="190.8,270 208.2,240 225.5,270 	"/>
	<polygon clip-path="url(#SVGID_2_)" fill="#EBEDEF" points="242.8,240 225.5,270 208.2,240 	"/>
	<polygon clip-path="url(#SVGID_2_)" fill="#ECEEF0" points="225.5,270 242.8,240 260.1,270 	"/>
	<polygon clip-path="url(#SVGID_2_)" fill="#F0F2F3" points="277.4,240 260.1,270 242.8,240 	"/>
	<polygon clip-path="url(#SVGID_2_)" fill="#EFF1F3" points="260.1,270 277.4,240 294.8,270 	"/>
	<polygon clip-path="url(#SVGID_2_)" fill="#F9FAFB" points="312.1,240 294.8,270 277.4,240 	"/>
	<polygon clip-path="url(#SVGID_2_)" fill="#EEF0F0" points="294.8,270 312.1,240 329.4,270 	"/>
	<polygon clip-path="url(#SVGID_2_)" fill="#EDEFEF" points="346.7,240 329.4,270 312.1,240 	"/>
	<polygon clip-path="url(#SVGID_2_)" fill="#F0F3F2" points="329.4,270 346.7,240 364,270 	"/>
	<polygon clip-path="url(#SVGID_2_)" fill="#E2E6E5" points="381.4,240 364,270 346.7,240 	"/>
	<polygon clip-path="url(#SVGID_2_)" fill="#E8EAE9" points="364,270 381.4,240 398.7,270 	"/>
	<polygon clip-path="url(#SVGID_2_)" fill="#E0E2E1" points="416,240 398.7,270 381.4,240 	"/>
	<polygon clip-path="url(#SVGID_2_)" fill="#EAEBEB" points="398.7,270 416,240 433.3,270 	"/>
	<polygon clip-path="url(#SVGID_2_)" fill="#DFE1E1" points="450.6,240 433.3,270 416,240 	"/>
	<polygon clip-path="url(#SVGID_2_)" fill="#EAEBEA" points="433.3,270 450.6,240 468,270 	"/>
	<polygon clip-path="url(#SVGID_2_)" fill="#DDDFDE" points="485.3,240 468,270 450.6,240 	"/>
	<polygon clip-path="url(#SVGID_2_)" fill="#E2E2E2" points="468,270 485.3,240 502.6,270 	"/>
	<polygon clip-path="url(#SVGID_2_)" fill="#ECEDED" points="17.6,270 0.3,300 -17,270 	"/>
	<polygon clip-path="url(#SVGID_2_)" fill="#E4E5E5" points="0.3,300 17.6,270 35,300 	"/>
	<polygon clip-path="url(#SVGID_2_)" fill="#E0E3E2" points="52.3,270 35,300 17.6,270 	"/>
	<polygon clip-path="url(#SVGID_2_)" fill="#E4E7E6" points="35,300 52.3,270 69.6,300 	"/>
	<polygon clip-path="url(#SVGID_2_)" fill="#DEE1E0" points="86.9,270 69.6,300 52.3,270 	"/>
	<polygon clip-path="url(#SVGID_2_)" fill="#DEE0E0" points="69.6,300 86.9,270 104.2,300 	"/>
	<polygon clip-path="url(#SVGID_2_)" fill="#E8EAEA" points="121.6,270 104.2,300 86.9,270 	"/>
	<polygon clip-path="url(#SVGID_2_)" fill="#F7F9F9" points="104.2,300 121.6,270 138.9,300 	"/>
	<polygon clip-path="url(#SVGID_2_)" fill="#E9EBEB" points="156.2,270 138.9,300 121.6,270 	"/>
	<polygon clip-path="url(#SVGID_2_)" fill="#FBFDFD" points="138.9,300 156.2,270 173.5,300 	"/>
	<polygon clip-path="url(#SVGID_2_)" fill="#F4F6F5" points="190.8,270 173.5,300 156.2,270 	"/>
	<polygon clip-path="url(#SVGID_2_)" fill="#ECEFF0" points="173.5,300 190.8,270 208.2,300 	"/>
	<polygon clip-path="url(#SVGID_2_)" fill="#E7E9E9" points="225.5,270 208.2,300 190.8,270 	"/>
	<polygon clip-path="url(#SVGID_2_)" fill="#E3E6E8" points="208.2,300 225.5,270 242.8,300 	"/>
	<polygon clip-path="url(#SVGID_2_)" fill="#F2F4F6" points="260.1,270 242.8,300 225.5,270 	"/>
	<polygon clip-path="url(#SVGID_2_)" fill="#F5F7F9" points="242.8,300 260.1,270 277.4,300 	"/>
	<polygon clip-path="url(#SVGID_2_)" fill="#F8FAFB" points="294.8,270 277.4,300 260.1,270 	"/>
	<polygon clip-path="url(#SVGID_2_)" fill="#F4F7F6" points="277.4,300 294.8,270 312.1,300 	"/>
	<polygon clip-path="url(#SVGID_2_)" fill="#E9EBEB" points="329.4,270 312.1,300 294.8,270 	"/>
	<polygon clip-path="url(#SVGID_2_)" fill="#F2F4F4" points="312.1,300 329.4,270 346.7,300 	"/>
	<polygon clip-path="url(#SVGID_2_)" fill="#E9EBEB" points="364,270 346.7,300 329.4,270 	"/>
	<polygon clip-path="url(#SVGID_2_)" fill="#E2E4E5" points="346.7,300 364,270 381.4,300 	"/>
	<polygon clip-path="url(#SVGID_2_)" fill="#F6F9F8" points="398.7,270 381.4,300 364,270 	"/>
	<polygon clip-path="url(#SVGID_2_)" fill="#EAEDED" points="381.4,300 398.7,270 416,300 	"/>
	<polygon clip-path="url(#SVGID_2_)" fill="#F5F7F7" points="433.3,270 416,300 398.7,270 	"/>
	<polygon clip-path="url(#SVGID_2_)" fill="#F2F3F2" points="416,300 433.3,270 450.6,300 	"/>
	<polygon clip-path="url(#SVGID_2_)" fill="#F5F7F6" points="468,270 450.6,300 433.3,270 	"/>
	<polygon clip-path="url(#SVGID_2_)" fill="#F1F3F3" points="450.6,300 468,270 485.3,300 	"/>
	<polygon clip-path="url(#SVGID_2_)" fill="#EFF2F3" points="502.6,270 485.3,300 468,270 	"/>
	<polygon clip-path="url(#SVGID_2_)" fill="#E2E4E3" points="-17,330 0.3,300 17.6,330 	"/>
	<polygon clip-path="url(#SVGID_2_)" fill="#E9EBEB" points="35,300 17.6,330 0.3,300 	"/>
	<polygon clip-path="url(#SVGID_2_)" fill="#EEF1F0" points="17.6,330 35,300 52.3,330 	"/>
	<polygon clip-path="url(#SVGID_2_)" fill="#E2E5E4" points="69.6,300 52.3,330 35,300 	"/>
	<polygon clip-path="url(#SVGID_2_)" fill="#DDDFE0" points="52.3,330 69.6,300 86.9,330 	"/>
	<polygon clip-path="url(#SVGID_2_)" fill="#F1F2F3" points="104.2,300 86.9,330 69.6,300 	"/>
	<polygon clip-path="url(#SVGID_2_)" fill="#E9ECEB" points="86.9,330 104.2,300 121.6,330 	"/>
	<polygon clip-path="url(#SVGID_2_)" fill="#E2E5E4" points="138.9,300 121.6,330 104.2,300 	"/>
	<polygon clip-path="url(#SVGID_2_)" fill="#E0E4E4" points="121.6,330 138.9,300 156.2,330 	"/>
	<polygon clip-path="url(#SVGID_2_)" fill="#F6F8F8" points="173.5,300 156.2,330 138.9,300 	"/>
	<polygon clip-path="url(#SVGID_2_)" fill="#F0F2F3" points="156.2,330 173.5,300 190.8,330 	"/>
	<polygon clip-path="url(#SVGID_2_)" fill="#F0F2F1" points="208.2,300 190.8,330 173.5,300 	"/>
	<polygon clip-path="url(#SVGID_2_)" fill="#F3F4F5" points="190.8,330 208.2,300 225.5,330 	"/>
	<polygon clip-path="url(#SVGID_2_)" fill="#F5F7F9" points="242.8,300 225.5,330 208.2,300 	"/>
	<polygon clip-path="url(#SVGID_2_)" fill="#EEF0F1" points="225.5,330 242.8,300 260.1,330 	"/>
	<polygon clip-path="url(#SVGID_2_)" fill="#E3E5E7" points="277.4,300 260.1,330 242.8,300 	"/>
	<polygon clip-path="url(#SVGID_2_)" fill="#EAEBEC" points="260.1,330 277.4,300 294.8,330 	"/>
	<polygon clip-path="url(#SVGID_2_)" fill="#F0F2F2" points="312.1,300 294.8,330 277.4,300 	"/>
	<polygon clip-path="url(#SVGID_2_)" fill="#EFF1F1" points="294.8,330 312.1,300 329.4,330 	"/>
	<polygon clip-path="url(#SVGID_2_)" fill="#EBEDEE" points="346.7,300 329.4,330 312.1,300 	"/>
	<polygon clip-path="url(#SVGID_2_)" fill="#EFF1F1" points="329.4,330 346.7,300 364,330 	"/>
	<polygon clip-path="url(#SVGID_2_)" fill="#F2F4F4" points="381.4,300 364,330 346.7,300 	"/>
	<polygon clip-path="url(#SVGID_2_)" fill="#F6F8F7" points="364,330 381.4,300 398.7,330 	"/>
	<polygon clip-path="url(#SVGID_2_)" fill="#FBFEFD" points="416,300 398.7,330 381.4,300 	"/>
	<polygon clip-path="url(#SVGID_2_)" fill="#EEF0EF" points="398.7,330 416,300 433.3,330 	"/>
	<polygon clip-path="url(#SVGID_2_)" fill="#F3F4F4" points="450.6,300 433.3,330 416,300 	"/>
	<polygon clip-path="url(#SVGID_2_)" fill="#E6E9E9" points="433.3,330 450.6,300 468,330 	"/>
	<polygon clip-path="url(#SVGID_2_)" fill="#F0F1F1" points="485.3,300 468,330 450.6,300 	"/>
	<polygon clip-path="url(#SVGID_2_)" fill="#F0F3F3" points="468,330 485.3,300 502.6,330 	"/>
	<polygon clip-path="url(#SVGID_2_)" fill="#E3E5E6" points="17.6,330 0.3,360 -17,330 	"/>
	<polygon clip-path="url(#SVGID_2_)" fill="#E5E7E8" points="0.3,360 17.6,330 35,360 	"/>
	<polygon clip-path="url(#SVGID_2_)" fill="#E8EAEA" points="52.3,330 35,360 17.6,330 	"/>
	<polygon clip-path="url(#SVGID_2_)" fill="#EAEDEC" points="35,360 52.3,330 69.6,360 	"/>
	<polygon clip-path="url(#SVGID_2_)" fill="#EBEDED" points="86.9,330 69.6,360 52.3,330 	"/>
	<polygon clip-path="url(#SVGID_2_)" fill="#F1F4F3" points="69.6,360 86.9,330 104.2,360 	"/>
	<polygon clip-path="url(#SVGID_2_)" fill="#EAEDEC" points="121.6,330 104.2,360 86.9,330 	"/>
	<polygon clip-path="url(#SVGID_2_)" fill="#E8EAEC" points="104.2,360 121.6,330 138.9,360 	"/>
	<polygon clip-path="url(#SVGID_2_)" fill="#EDEFF1" points="156.2,330 138.9,360 121.6,330 	"/>
	<polygon clip-path="url(#SVGID_2_)" fill="#EEF0F1" points="138.9,360 156.2,330 173.5,360 	"/>
	<polygon clip-path="url(#SVGID_2_)" fill="#E1E3E4" points="190.8,330 173.5,360 156.2,330 	"/>
	<polygon clip-path="url(#SVGID_2_)" fill="#EEF1F0" points="173.5,360 190.8,330 208.2,360 	"/>
	<polygon clip-path="url(#SVGID_2_)" fill="#F2F5F5" points="225.5,330 208.2,360 190.8,330 	"/>
	<polygon clip-path="url(#SVGID_2_)" fill="#F3F5F7" points="208.2,360 225.5,330 242.8,360 	"/>
	<polygon clip-path="url(#SVGID_2_)" fill="#F1F3F5" points="260.1,330 242.8,360 225.5,330 	"/>
	<polygon clip-path="url(#SVGID_2_)" fill="#F3F5F6" points="242.8,360 260.1,330 277.4,360 	"/>
	<polygon clip-path="url(#SVGID_2_)" fill="#EBEDEF" points="294.8,330 277.4,360 260.1,330 	"/>
	<polygon clip-path="url(#SVGID_2_)" fill="#E4E6E6" points="277.4,360 294.8,330 312.1,360 	"/>
	<polygon clip-path="url(#SVGID_2_)" fill="#EAECEC" points="329.4,330 312.1,360 294.8,330 	"/>
	<polygon clip-path="url(#SVGID_2_)" fill="#E9ECEB" points="312.1,360 329.4,330 346.7,360 	"/>
	<polygon clip-path="url(#SVGID_2_)" fill="#F1F4F4" points="364,330 346.7,360 329.4,330 	"/>
	<polygon clip-path="url(#SVGID_2_)" fill="#EBEDED" points="346.7,360 364,330 381.4,360 	"/>
	<polygon clip-path="url(#SVGID_2_)" fill="#F7F9F8" points="398.7,330 381.4,360 364,330 	"/>
	<polygon clip-path="url(#SVGID_2_)" fill="#E8EAEA" points="381.4,360 398.7,330 416,360 	"/>
	<polygon clip-path="url(#SVGID_2_)" fill="#F6F8F8" points="433.3,330 416,360 398.7,330 	"/>
	<polygon clip-path="url(#SVGID_2_)" fill="#FAFAFA" points="416,360 433.3,330 450.6,360 	"/>
	<polygon clip-path="url(#SVGID_2_)" fill="#EBEBEB" points="468,330 450.6,360 433.3,330 	"/>
	<polygon clip-path="url(#SVGID_2_)" fill="#F3F3F3" points="450.6,360 468,330 485.3,360 	"/>
	<polygon clip-path="url(#SVGID_2_)" fill="#E1E1E1" points="502.6,330 485.3,360 468,330 	"/>
	<polygon clip-path="url(#SVGID_2_)" fill="#E7E9EA" points="-17,390 0.3,360 17.6,390 	"/>
	<polygon clip-path="url(#SVGID_2_)" fill="#E5E7E8" points="35,360 17.6,390 0.3,360 	"/>
	<polygon clip-path="url(#SVGID_2_)" fill="#DBDCDC" points="17.6,390 35,360 52.3,390 	"/>
	<polygon clip-path="url(#SVGID_2_)" fill="#DBDDDC" points="69.6,360 52.3,390 35,360 	"/>
	<polygon clip-path="url(#SVGID_2_)" fill="#EAEDEC" points="52.3,390 69.6,360 86.9,390 	"/>
	<polygon clip-path="url(#SVGID_2_)" fill="#E4E7E6" points="104.2,360 86.9,390 69.6,360 	"/>
	<polygon clip-path="url(#SVGID_2_)" fill="#EAEDEC" points="86.9,390 104.2,360 121.6,390 	"/>
	<polygon clip-path="url(#SVGID_2_)" fill="#F1F4F4" points="138.9,360 121.6,390 104.2,360 	"/>
	<polygon clip-path="url(#SVGID_2_)" fill="#F1F3F5" points="121.6,390 138.9,360 156.2,390 	"/>
	<polygon clip-path="url(#SVGID_2_)" fill="#F1F3F5" points="173.5,360 156.2,390 138.9,360 	"/>
	<polygon clip-path="url(#SVGID_2_)" fill="#E3E5E7" points="156.2,390 173.5,360 190.8,390 	"/>
	<polygon clip-path="url(#SVGID_2_)" fill="#E6E8E9" points="208.2,360 190.8,390 173.5,360 	"/>
	<polygon clip-path="url(#SVGID_2_)" fill="#ECEEF0" points="190.8,390 208.2,360 225.5,390 	"/>
	<polygon clip-path="url(#SVGID_2_)" fill="#F0F2F4" points="242.8,360 225.5,390 208.2,360 	"/>
	<polygon clip-path="url(#SVGID_2_)" fill="#ECEEF0" points="225.5,390 242.8,360 260.1,390 	"/>
	<polygon clip-path="url(#SVGID_2_)" fill="#E9EBED" points="277.4,360 260.1,390 242.8,360 	"/>
	<polygon clip-path="url(#SVGID_2_)" fill="#EBEDEE" points="260.1,390 277.4,360 294.8,390 	"/>
	<polygon clip-path="url(#SVGID_2_)" fill="#F7F9F9" points="312.1,360 294.8,390 277.4,360 	"/>
	<polygon clip-path="url(#SVGID_2_)" fill="#EAEDEC" points="294.8,390 312.1,360 329.4,390 	"/>
	<polygon clip-path="url(#SVGID_2_)" fill="#EFF1F0" points="346.7,360 329.4,390 312.1,360 	"/>
	<polygon clip-path="url(#SVGID_2_)" fill="#F4F7F7" points="329.4,390 346.7,360 364,390 	"/>
	<polygon clip-path="url(#SVGID_2_)" fill="#F4F6F8" points="381.4,360 364,390 346.7,360 	"/>
	<polygon clip-path="url(#SVGID_2_)" fill="#EDF0F0" points="364,390 381.4,360 398.7,390 	"/>
	<polygon clip-path="url(#SVGID_2_)" fill="#F2F3F3" points="416,360 398.7,390 381.4,360 	"/>
	<polygon clip-path="url(#SVGID_2_)" fill="#F0F2F1" points="398.7,390 416,360 433.3,390 	"/>
	<polygon clip-path="url(#SVGID_2_)" fill="#F4F4F4" points="450.6,360 433.3,390 416,360 	"/>
	<polygon clip-path="url(#SVGID_2_)" fill="#DCDEDD" points="433.3,390 450.6,360 468,390 	"/>
	<polygon clip-path="url(#SVGID_2_)" fill="#E1E2E2" points="485.3,360 468,390 450.6,360 	"/>
	<polygon clip-path="url(#SVGID_2_)" fill="#D7D9D8" points="468,390 485.3,360 502.6,390 	"/>
	<polygon clip-path="url(#SVGID_2_)" fill="#EFF1F2" points="17.6,390 0.3,420 -17,390 	"/>
	<polygon clip-path="url(#SVGID_2_)" fill="#E6E9E9" points="0.3,420 17.6,390 35,420 	"/>
	<polygon clip-path="url(#SVGID_2_)" fill="#F1F3F3" points="52.3,390 35,420 17.6,390 	"/>
	<polygon clip-path="url(#SVGID_2_)" fill="#E6E8E7" points="35,420 52.3,390 69.6,420 	"/>
	<polygon clip-path="url(#SVGID_2_)" fill="#DBDCDD" points="86.9,390 69.6,420 52.3,390 	"/>
	<polygon clip-path="url(#SVGID_2_)" fill="#E3E5E4" points="69.6,420 86.9,390 104.2,420 	"/>
	<polygon clip-path="url(#SVGID_2_)" fill="#E3E5E5" points="121.6,390 104.2,420 86.9,390 	"/>
	<polygon clip-path="url(#SVGID_2_)" fill="#F0F2F2" points="104.2,420 121.6,390 138.9,420 	"/>
	<polygon clip-path="url(#SVGID_2_)" fill="#EAEDEC" points="156.2,390 138.9,420 121.6,390 	"/>
	<polygon clip-path="url(#SVGID_2_)" fill="#EEF0F1" points="138.9,420 156.2,390 173.5,420 	"/>
	<polygon clip-path="url(#SVGID_2_)" fill="#EAEDEE" points="190.8,390 173.5,420 156.2,390 	"/>
	<polygon clip-path="url(#SVGID_2_)" fill="#EEF0F1" points="173.5,420 190.8,390 208.2,420 	"/>
	<polygon clip-path="url(#SVGID_2_)" fill="#EEF1F2" points="225.5,390 208.2,420 190.8,390 	"/>
	<polygon clip-path="url(#SVGID_2_)" fill="#E0E3E4" points="208.2,420 225.5,390 242.8,420 	"/>
	<polygon clip-path="url(#SVGID_2_)" fill="#E9EBEC" points="260.1,390 242.8,420 225.5,390 	"/>
	<polygon clip-path="url(#SVGID_2_)" fill="#F4F6F7" points="242.8,420 260.1,390 277.4,420 	"/>
	<polygon clip-path="url(#SVGID_2_)" fill="#F2F3F3" points="294.8,390 277.4,420 260.1,390 	"/>
	<polygon clip-path="url(#SVGID_2_)" fill="#E5E7E7" points="277.4,420 294.8,390 312.1,420 	"/>
	<polygon clip-path="url(#SVGID_2_)" fill="#EEF0F0" points="329.4,390 312.1,420 294.8,390 	"/>
	<polygon clip-path="url(#SVGID_2_)" fill="#EFF2F1" points="312.1,420 329.4,390 346.7,420 	"/>
	<polygon clip-path="url(#SVGID_2_)" fill="#EFF1F1" points="364,390 346.7,420 329.4,390 	"/>
	<polygon clip-path="url(#SVGID_2_)" fill="#EFF1F1" points="346.7,420 364,390 381.4,420 	"/>
	<polygon clip-path="url(#SVGID_2_)" fill="#F0F3F3" points="398.7,390 381.4,420 364,390 	"/>
	<polygon clip-path="url(#SVGID_2_)" fill="#EAEDEC" points="381.4,420 398.7,390 416,420 	"/>
	<polygon clip-path="url(#SVGID_2_)" fill="#EDEFEE" points="433.3,390 416,420 398.7,390 	"/>
	<polygon clip-path="url(#SVGID_2_)" fill="#F7F7F7" points="416,420 433.3,390 450.6,420 	"/>
	<polygon clip-path="url(#SVGID_2_)" fill="#F0F0F0" points="468,390 450.6,420 433.3,390 	"/>
	<polygon clip-path="url(#SVGID_2_)" fill="#F5F6F6" points="450.6,420 468,390 485.3,420 	"/>
	<polygon clip-path="url(#SVGID_2_)" fill="#EFF0F0" points="502.6,390 485.3,420 468,390 	"/>
	<polygon clip-path="url(#SVGID_2_)" fill="#F1F2F2" points="-17,450 0.3,420 17.6,450 	"/>
	<polygon clip-path="url(#SVGID_2_)" fill="#E7EAEA" points="35,420 17.6,450 0.3,420 	"/>
	<polygon clip-path="url(#SVGID_2_)" fill="#E2E4E5" points="17.6,450 35,420 52.3,450 	"/>
	<polygon clip-path="url(#SVGID_2_)" fill="#E1E4E5" points="69.6,420 52.3,450 35,420 	"/>
	<polygon clip-path="url(#SVGID_2_)" fill="#E2E4E5" points="52.3,450 69.6,420 86.9,450 	"/>
	<polygon clip-path="url(#SVGID_2_)" fill="#E7EAEC" points="104.2,420 86.9,450 69.6,420 	"/>
	<polygon clip-path="url(#SVGID_2_)" fill="#DDE0E0" points="86.9,450 104.2,420 121.6,450 	"/>
	<polygon clip-path="url(#SVGID_2_)" fill="#E8EAEB" points="138.9,420 121.6,450 104.2,420 	"/>
	<polygon clip-path="url(#SVGID_2_)" fill="#F0F2F3" points="121.6,450 138.9,420 156.2,450 	"/>
	<polygon clip-path="url(#SVGID_2_)" fill="#EFF2F1" points="173.5,420 156.2,450 138.9,420 	"/>
	<polygon clip-path="url(#SVGID_2_)" fill="#F0F3F3" points="156.2,450 173.5,420 190.8,450 	"/>
	<polygon clip-path="url(#SVGID_2_)" fill="#ECEEEF" points="208.2,420 190.8,450 173.5,420 	"/>
	<polygon clip-path="url(#SVGID_2_)" fill="#EDEFF0" points="190.8,450 208.2,420 225.5,450 	"/>
	<polygon clip-path="url(#SVGID_2_)" fill="#ECEEF0" points="242.8,420 225.5,450 208.2,420 	"/>
	<polygon clip-path="url(#SVGID_2_)" fill="#F6F8FA" points="225.5,450 242.8,420 260.1,450 	"/>
	<polygon clip-path="url(#SVGID_2_)" fill="#F9FBFD" points="277.4,420 260.1,450 242.8,420 	"/>
	<polygon clip-path="url(#SVGID_2_)" fill="#EFF2F2" points="260.1,450 277.4,420 294.8,450 	"/>
	<polygon clip-path="url(#SVGID_2_)" fill="#F1F3F4" points="312.1,420 294.8,450 277.4,420 	"/>
	<polygon clip-path="url(#SVGID_2_)" fill="#F1F3F3" points="294.8,450 312.1,420 329.4,450 	"/>
	<polygon clip-path="url(#SVGID_2_)" fill="#F0F0F0" points="346.7,420 329.4,450 312.1,420 	"/>
	<polygon clip-path="url(#SVGID_2_)" fill="#EEF0EF" points="329.4,450 346.7,420 364,450 	"/>
	<polygon clip-path="url(#SVGID_2_)" fill="#EEF0EF" points="381.4,420 364,450 346.7,420 	"/>
	<polygon clip-path="url(#SVGID_2_)" fill="#F3F5F5" points="364,450 381.4,420 398.7,450 	"/>
	<polygon clip-path="url(#SVGID_2_)" fill="#FBFDFB" points="416,420 398.7,450 381.4,420 	"/>
	<polygon clip-path="url(#SVGID_2_)" fill="#ECEDED" points="398.7,450 416,420 433.3,450 	"/>
	<polygon clip-path="url(#SVGID_2_)" fill="#EEEFEF" points="450.6,420 433.3,450 416,420 	"/>
	<polygon clip-path="url(#SVGID_2_)" fill="#ECEEED" points="433.3,450 450.6,420 468,450 	"/>
	<polygon clip-path="url(#SVGID_2_)" fill="#EDEEEE" points="485.3,420 468,450 450.6,420 	"/>
	<polygon clip-path="url(#SVGID_2_)" fill="#EDEFEE" points="468,450 485.3,420 502.6,450 	"/>
	<polygon clip-path="url(#SVGID_2_)" fill="#EBEEEE" points="17.6,450 0.3,480 -17,450 	"/>
	<polygon clip-path="url(#SVGID_2_)" fill="#E8ECEC" points="0.3,480 17.6,450 35,480 	"/>
	<polygon clip-path="url(#SVGID_2_)" fill="#F8F9F9" points="52.3,450 35,480 17.6,450 	"/>
	<polygon clip-path="url(#SVGID_2_)" fill="#EAECED" points="35,480 52.3,450 69.6,480 	"/>
	<polygon clip-path="url(#SVGID_2_)" fill="#EBEDED" points="86.9,450 69.6,480 52.3,450 	"/>
	<polygon clip-path="url(#SVGID_2_)" fill="#EAEDEE" points="69.6,480 86.9,450 104.2,480 	"/>
	<polygon clip-path="url(#SVGID_2_)" fill="#EAECEC" points="121.6,450 104.2,480 86.9,450 	"/>
	<polygon clip-path="url(#SVGID_2_)" fill="#EFF2F1" points="104.2,480 121.6,450 138.9,480 	"/>
	<polygon clip-path="url(#SVGID_2_)" fill="#EFF0F0" points="156.2,450 138.9,480 121.6,450 	"/>
	<polygon clip-path="url(#SVGID_2_)" fill="#F9FBFD" points="138.9,480 156.2,450 173.5,480 	"/>
	<polygon clip-path="url(#SVGID_2_)" fill="#F0F2F2" points="190.8,450 173.5,480 156.2,450 	"/>
	<polygon clip-path="url(#SVGID_2_)" fill="#E5E7E6" points="173.5,480 190.8,450 208.2,480 	"/>
	<polygon clip-path="url(#SVGID_2_)" fill="#EFF1F2" points="225.5,450 208.2,480 190.8,450 	"/>
	<polygon clip-path="url(#SVGID_2_)" fill="#F8FAFD" points="208.2,480 225.5,450 242.8,480 	"/>
	<polygon clip-path="url(#SVGID_2_)" fill="#F0F2F4" points="260.1,450 242.8,480 225.5,450 	"/>
	<polygon clip-path="url(#SVGID_2_)" fill="#EEF0F1" points="242.8,480 260.1,450 277.4,480 	"/>
	<polygon clip-path="url(#SVGID_2_)" fill="#DDE0E1" points="294.8,450 277.4,480 260.1,450 	"/>
	<polygon clip-path="url(#SVGID_2_)" fill="#EEF0F1" points="277.4,480 294.8,450 312.1,480 	"/>
	<polygon clip-path="url(#SVGID_2_)" fill="#EEF1F0" points="329.4,450 312.1,480 294.8,450 	"/>
	<polygon clip-path="url(#SVGID_2_)" fill="#E9EBEC" points="312.1,480 329.4,450 346.7,480 	"/>
	<polygon clip-path="url(#SVGID_2_)" fill="#EBECED" points="364,450 346.7,480 329.4,450 	"/>
	<polygon clip-path="url(#SVGID_2_)" fill="#E4E4E6" points="346.7,480 364,450 381.4,480 	"/>
	<polygon clip-path="url(#SVGID_2_)" fill="#DFE1E1" points="398.7,450 381.4,480 364,450 	"/>
	<polygon clip-path="url(#SVGID_2_)" fill="#ECEDED" points="381.4,480 398.7,450 416,480 	"/>
	<polygon clip-path="url(#SVGID_2_)" fill="#EEEEEE" points="433.3,450 416,480 398.7,450 	"/>
	<polygon clip-path="url(#SVGID_2_)" fill="#EFF1F0" points="416,480 433.3,450 450.6,480 	"/>
	<polygon clip-path="url(#SVGID_2_)" fill="#F1F2F1" points="468,450 450.6,480 433.3,450 	"/>
	<polygon clip-path="url(#SVGID_2_)" fill="#ECEEED" points="450.6,480 468,450 485.3,480 	"/>
	<polygon clip-path="url(#SVGID_2_)" fill="#EFF0EF" points="502.6,450 485.3,480 468,450 	"/>
	<polygon clip-path="url(#SVGID_2_)" fill="#F4F5F5" points="-17,510 0.3,480 17.6,510 	"/>
	<polygon clip-path="url(#SVGID_2_)" fill="#E5E7E7" points="35,480 17.6,510 0.3,480 	"/>
	<polygon clip-path="url(#SVGID_2_)" fill="#ECEDED" points="17.6,510 35,480 52.3,510 	"/>
	<polygon clip-path="url(#SVGID_2_)" fill="#DDDEDE" points="69.6,480 52.3,510 35,480 	"/>
	<polygon clip-path="url(#SVGID_2_)" fill="#E8EBEA" points="52.3,510 69.6,480 86.9,510 	"/>
	<polygon clip-path="url(#SVGID_2_)" fill="#D7D9D9" points="104.2,480 86.9,510 69.6,480 	"/>
	<polygon clip-path="url(#SVGID_2_)" fill="#D5D6D6" points="86.9,510 104.2,480 121.6,510 	"/>
	<polygon clip-path="url(#SVGID_2_)" fill="#D8DADB" points="138.9,480 121.6,510 104.2,480 	"/>
	<polygon clip-path="url(#SVGID_2_)" fill="#E4E6E5" points="121.6,510 138.9,480 156.2,510 	"/>
	<polygon clip-path="url(#SVGID_2_)" fill="#E3E5E5" points="173.5,480 156.2,510 138.9,480 	"/>
	<polygon clip-path="url(#SVGID_2_)" fill="#E2E5E5" points="156.2,510 173.5,480 190.8,510 	"/>
	<polygon clip-path="url(#SVGID_2_)" fill="#F0F2F2" points="208.2,480 190.8,510 173.5,480 	"/>
	<polygon clip-path="url(#SVGID_2_)" fill="#E7E9EA" points="190.8,510 208.2,480 225.5,510 	"/>
	<polygon clip-path="url(#SVGID_2_)" fill="#EDEFF0" points="242.8,480 225.5,510 208.2,480 	"/>
	<polygon clip-path="url(#SVGID_2_)" fill="#DFE1E2" points="225.5,510 242.8,480 260.1,510 	"/>
	<polygon clip-path="url(#SVGID_2_)" fill="#F2F4F6" points="277.4,480 260.1,510 242.8,480 	"/>
	<polygon clip-path="url(#SVGID_2_)" fill="#F0F2F4" points="260.1,510 277.4,480 294.8,510 	"/>
	<polygon clip-path="url(#SVGID_2_)" fill="#F6F8F9" points="312.1,480 294.8,510 277.4,480 	"/>
	<polygon clip-path="url(#SVGID_2_)" fill="#F7F9F9" points="294.8,510 312.1,480 329.4,510 	"/>
	<polygon clip-path="url(#SVGID_2_)" fill="#F0F3F3" points="346.7,480 329.4,510 312.1,480 	"/>
	<polygon clip-path="url(#SVGID_2_)" fill="#F1F3F5" points="329.4,510 346.7,480 364,510 	"/>
	<polygon clip-path="url(#SVGID_2_)" fill="#F0F2F4" points="381.4,480 364,510 346.7,480 	"/>
	<polygon clip-path="url(#SVGID_2_)" fill="#F7F8F8" points="364,510 381.4,480 398.7,510 	"/>
	<polygon clip-path="url(#SVGID_2_)" fill="#F3F5F5" points="416,480 398.7,510 381.4,480 	"/>
	<polygon clip-path="url(#SVGID_2_)" fill="#F4F5F5" points="398.7,510 416,480 433.3,510 	"/>
	<polygon clip-path="url(#SVGID_2_)" fill="#F6F6F6" points="450.6,480 433.3,510 416,480 	"/>
	<polygon clip-path="url(#SVGID_2_)" fill="#EDEEEE" points="433.3,510 450.6,480 468,510 	"/>
	<polygon clip-path="url(#SVGID_2_)" fill="#F0F3F3" points="485.3,480 468,510 450.6,480 	"/>
	<polygon clip-path="url(#SVGID_2_)" fill="#F6F8F8" points="468,510 485.3,480 502.6,510 	"/>
	<polygon clip-path="url(#SVGID_2_)" fill="#CFCFCF" points="-17,30 0.3,0 17.6,30 	"/>
	<polygon clip-path="url(#SVGID_2_)" fill="#ECECEC" points="17.6,30 0.3,60 -17,30 	"/>
	<polygon clip-path="url(#SVGID_2_)" fill="#F1F1F1" points="-17,90 0.3,60 17.6,90 	"/>
	<polygon clip-path="url(#SVGID_2_)" fill="#DCDDDD" points="17.6,90 0.3,120 -17,90 	"/>
	<polygon clip-path="url(#SVGID_2_)" fill="#FFFFFF" points="-17,150 0.3,120 17.6,150 	"/>
	<polygon clip-path="url(#SVGID_2_)" fill="#EBEBEB" points="17.6,150 0.3,180 -17,150 	"/>
	<polygon clip-path="url(#SVGID_2_)" fill="#EAEAEA" points="-17,210 0.3,180 17.6,210 	"/>
	<polygon clip-path="url(#SVGID_2_)" fill="#E9E9E9" points="17.6,210 0.3,240 -17,210 	"/>
	<polygon clip-path="url(#SVGID_2_)" fill="#E2E2E2" points="-17,270 0.3,240 17.6,270 	"/>
	<polygon clip-path="url(#SVGID_2_)" fill="#EFF2F3" points="17.6,270 0.3,300 -17,270 	"/>
	<polygon clip-path="url(#SVGID_2_)" fill="#F0F3F3" points="-17,330 0.3,300 17.6,330 	"/>
	<polygon clip-path="url(#SVGID_2_)" fill="#E1E1E1" points="17.6,330 0.3,360 -17,330 	"/>
	<polygon clip-path="url(#SVGID_2_)" fill="#D7D9D8" points="-17,390 0.3,360 17.6,390 	"/>
	<polygon clip-path="url(#SVGID_2_)" fill="#EFF0F0" points="17.6,390 0.3,420 -17,390 	"/>
	<polygon clip-path="url(#SVGID_2_)" fill="#EDEFEE" points="-17,450 0.3,420 17.6,450 	"/>
	<polygon clip-path="url(#SVGID_2_)" fill="#EFF0EF" points="17.6,450 0.3,480 -17,450 	"/>
	<polygon clip-path="url(#SVGID_2_)" fill="#F6F8F8" points="-17,510 0.3,480 17.6,510 	"/>
</g>
</svg>
