<?xml version="1.0" encoding="utf-8"?>
<!-- Generator: Adobe Illustrator 18.0.0, SVG Export Plug-In . SVG Version: 6.00 Build 0)  -->
<!DOCTYPE svg PUBLIC "-//W3C//DTD SVG 1.1//EN" "http://www.w3.org/Graphics/SVG/1.1/DTD/svg11.dtd">
<svg version="1.1" id="Layer_1" xmlns="http://www.w3.org/2000/svg" xmlns:xlink="http://www.w3.org/1999/xlink" x="0px" y="0px"
	 viewBox="0 0 29.6 84.4" enable-background="new 0 0 29.6 84.4" xml:space="preserve">
<g>
	<polygon fill="#05648D" points="19,2.1 19,0 16.9,0 12.7,0 10.6,0 10.6,2.1 8.4,2.1 8.4,4.2 21.1,4.2 21.1,2.1 	"/>
	<rect x="6.3" y="4.2" fill="#3AB8E8" width="23.2" height="16.9"/>
	<rect x="10.6" y="0" fill="#1A9AD7" width="4.2" height="2.1"/>
	<rect x="25.3" y="6.3" fill="#1F140F" width="4.2" height="8.4"/>
	<rect x="6.4" y="12.7" fill="#0C82B9" width="23.2" height="8.4"/>
	<rect x="8.4" y="21.1" fill="#010101" width="12.7" height="4.2"/>
	<rect x="6.3" y="25.3" fill="#1A9AD7" width="23.2" height="27.4"/>
	<rect x="8.4" y="52.8" fill="#0C82B9" width="12.7" height="6.3"/>
	<polygon fill="#05648D" points="8.4,52.8 8.4,54.9 19,54.9 19,59.1 21.1,59.1 21.1,52.8 	"/>
	<rect x="10.6" y="59.1" fill="#010101" width="8.4" height="14.8"/>
	<rect x="8.4" y="61.2" fill="#05648D" width="12.7" height="2.1"/>
	<rect x="8.4" y="65.4" fill="#05648D" width="12.7" height="2.1"/>
	<rect x="8.4" y="69.7" fill="#05648D" width="12.7" height="2.1"/>
	<rect x="8.4" y="73.9" fill="#0C82B9" width="19" height="10.6"/>
	<rect x="12.7" y="8.4" fill="#05648D" width="4.2" height="4.2"/>
	<rect x="12.7" y="8.4" fill="#1A9AD7" width="2.1" height="2.1"/>
	<rect x="8.4" y="82.3" fill="#05648D" width="19" height="2.1"/>
	<rect x="19" y="61.2" fill="#004260" width="2.1" height="2.1"/>
	<rect x="19" y="65.4" fill="#004260" width="2.1" height="2.1"/>
	<rect x="19" y="69.7" fill="#004260" width="2.1" height="2.1"/>
	<rect x="0" y="42.2" fill="#05648D" width="12.7" height="2.1"/>
	<rect x="0" y="38" fill="#05648D" width="12.7" height="2.1"/>
	<rect x="2.1" y="33.8" fill="#05648D" width="12.7" height="2.1"/>
	<rect x="4.2" y="29.6" fill="#05648D" width="12.7" height="2.1"/>
	<rect x="6.3" y="25.3" fill="#05648D" width="12.7" height="2.1"/>
	<rect x="6.3" y="27.4" fill="#010101" width="10.6" height="2.1"/>
	<rect x="4.2" y="31.7" fill="#010101" width="10.6" height="2.1"/>
	<rect x="2.1" y="35.9" fill="#010101" width="10.6" height="2.1"/>
	<rect x="2.1" y="40.1" fill="#010101" width="8.4" height="2.1"/>
	<rect x="2.1" y="44.3" fill="#010101" width="8.4" height="2.1"/>
	<rect x="2.1" y="48.6" fill="#010101" width="8.4" height="2.1"/>
	<polygon fill="#05648D" points="0,46.4 0,48.6 0,50.7 2.1,50.7 2.1,48.6 10.6,48.6 10.6,50.7 12.7,50.7 12.7,48.6 12.7,46.4 	"/>
	<polygon fill="#1A9AD7" points="12.7,52.8 12.7,50.7 0,50.7 0,61.2 2.1,61.2 2.1,63.3 6.3,63.3 6.3,57 8.4,57 8.4,54.9 10.6,54.9 
		10.6,59.1 14.8,59.1 14.8,52.8 	"/>
	<rect x="0" y="50.7" fill="#0C82B9" width="2.1" height="10.6"/>
	<rect x="2.1" y="61.2" fill="#0C82B9" width="2.1" height="2.1"/>
	<rect x="10.6" y="54.9" fill="#0C82B9" width="2.1" height="4.2"/>
	<rect x="6.3" y="25.3" fill="#004260" width="2.1" height="2.1"/>
	<rect x="4.2" y="29.6" fill="#004260" width="2.1" height="2.1"/>
	<rect x="2.1" y="33.8" fill="#004260" width="2.1" height="2.1"/>
	<rect x="0" y="38" fill="#004260" width="2.1" height="2.1"/>
	<rect x="0" y="42.2" fill="#004260" width="2.1" height="2.1"/>
	<rect x="0" y="46.4" fill="#004260" width="2.1" height="2.1"/>
</g>
</svg>
