<?xml version="1.0" encoding="utf-8"?>
<!-- Generator: Adobe Illustrator 18.0.0, SVG Export Plug-In . SVG Version: 6.00 Build 0)  -->
<!DOCTYPE svg PUBLIC "-//W3C//DTD SVG 1.1//EN" "http://www.w3.org/Graphics/SVG/1.1/DTD/svg11.dtd">
<svg version="1.1" id="Layer_1" xmlns="http://www.w3.org/2000/svg" xmlns:xlink="http://www.w3.org/1999/xlink" x="0px" y="0px"
	 viewBox="-91 -1 791 793.9" enable-background="new -91 -1 791 793.9" xml:space="preserve">
<g>
	<polygon fill="#05648D" points="266.6,19.7 266.6,0 286.3,0 325.7,0 345.4,0 345.4,19.7 365.1,19.7 365.1,39.4 246.9,39.4 
		246.9,19.7 	"/>
	<rect x="167.1" y="39.4" fill="#3AB8E8" width="217.7" height="158.6"/>
	<rect x="306" y="0" fill="#1A9AD7" width="39.4" height="19.7"/>
	<rect x="167.1" y="59.1" fill="#1F140F" width="39.4" height="78.8"/>
	<rect x="167.1" y="119.2" fill="#0C82B9" width="217.7" height="78.8"/>
	<rect x="246.9" y="198" fill="#010101" width="119.2" height="39.4"/>
	<rect x="167.1" y="237.4" fill="#1A9AD7" width="217.7" height="257.1"/>
	<rect x="246.9" y="495.5" fill="#0C82B9" width="119.2" height="59.1"/>
	<polygon fill="#05648D" points="365.1,495.5 365.1,515.2 266.6,515.2 266.6,554.6 246.9,554.6 246.9,495.5 	"/>
	<rect x="266.6" y="554.6" fill="#010101" width="78.8" height="138.9"/>
	<rect x="246.9" y="574.3" fill="#05648D" width="119.2" height="19.7"/>
	<rect x="246.9" y="613.7" fill="#05648D" width="119.2" height="19.7"/>
	<rect x="246.9" y="654.1" fill="#05648D" width="119.2" height="19.7"/>
	<rect x="186.8" y="693.5" fill="#0C82B9" width="178.3" height="99.5"/>
	<rect x="286.3" y="78.8" fill="#05648D" width="39.4" height="39.4"/>
	<rect x="306" y="78.8" fill="#1A9AD7" width="19.7" height="19.7"/>
	<rect x="186.8" y="772.3" fill="#05648D" width="178.3" height="19.7"/>
	<rect x="246.9" y="574.3" fill="#004260" width="19.7" height="19.7"/>
	<rect x="246.9" y="613.7" fill="#004260" width="19.7" height="19.7"/>
	<rect x="246.9" y="654.1" fill="#004260" width="19.7" height="19.7"/>
	<rect x="325.7" y="396" fill="#05648D" width="119.2" height="19.7"/>
	<rect x="325.7" y="356.6" fill="#05648D" width="119.2" height="19.7"/>
	<rect x="306" y="317.2" fill="#05648D" width="119.2" height="19.7"/>
	<rect x="286.3" y="277.8" fill="#05648D" width="119.2" height="19.7"/>
	<rect x="266.6" y="237.4" fill="#05648D" width="119.2" height="19.7"/>
	<rect x="286.3" y="257.1" fill="#010101" width="99.5" height="19.7"/>
	<rect x="306" y="297.5" fill="#010101" width="99.5" height="19.7"/>
	<rect x="325.7" y="336.9" fill="#010101" width="99.5" height="19.7"/>
	<rect x="345.4" y="376.3" fill="#010101" width="78.8" height="19.7"/>
	<rect x="345.4" y="415.7" fill="#010101" width="78.8" height="19.7"/>
	<rect x="345.4" y="456.1" fill="#010101" width="78.8" height="19.7"/>
	<polygon fill="#05648D" points="444.9,435.4 444.9,456.1 444.9,475.8 425.2,475.8 425.2,456.1 345.4,456.1 345.4,475.8 
		325.7,475.8 325.7,456.1 325.7,435.4 	"/>
	<polygon fill="#1A9AD7" points="325.7,495.5 325.7,475.8 444.9,475.8 444.9,574.3 425.2,574.3 425.2,594 385.8,594 385.8,534.9 
		365.1,534.9 365.1,515.2 345.4,515.2 345.4,554.6 306,554.6 306,495.5 	"/>
	<rect x="425.2" y="475.8" fill="#0C82B9" width="19.7" height="99.5"/>
	<rect x="405.5" y="574.3" fill="#0C82B9" width="19.7" height="19.7"/>
	<rect x="325.7" y="515.2" fill="#0C82B9" width="19.7" height="39.4"/>
	<rect x="365.1" y="237.4" fill="#004260" width="19.7" height="19.7"/>
	<rect x="385.8" y="277.8" fill="#004260" width="19.7" height="19.7"/>
	<rect x="405.5" y="317.2" fill="#004260" width="19.7" height="19.7"/>
	<rect x="425.2" y="356.6" fill="#004260" width="19.7" height="19.7"/>
	<rect x="425.2" y="396" fill="#004260" width="19.7" height="19.7"/>
	<rect x="425.2" y="435.4" fill="#004260" width="19.7" height="19.7"/>
</g>
<rect x="-90.5" y="-0.5" opacity="0" fill="#FFFFFF" stroke="#000000" stroke-miterlimit="10" width="790" height="790"/>
</svg>
