<?xml version="1.0" encoding="utf-8"?>
<!-- Generator: Adobe Illustrator 18.0.0, SVG Export Plug-In . SVG Version: 6.00 Build 0)  -->
<!DOCTYPE svg PUBLIC "-//W3C//DTD SVG 1.1//EN" "http://www.w3.org/Graphics/SVG/1.1/DTD/svg11.dtd">
<svg version="1.1" id="Layer_1" xmlns="http://www.w3.org/2000/svg" xmlns:xlink="http://www.w3.org/1999/xlink" x="0px" y="0px"
	 viewBox="0 0 29.6 84.4" enable-background="new 0 0 29.6 84.4" xml:space="preserve">
<g>
	<polygon fill="#05648D" points="10.6,2.1 10.6,0 12.7,0 16.9,0 19,0 19,2.1 21.1,2.1 21.1,4.2 8.5,4.2 8.5,2.1 	"/>
	<rect x="0" y="4.2" fill="#3AB8E8" width="23.2" height="16.9"/>
	<rect x="14.8" y="0" fill="#1A9AD7" width="4.2" height="2.1"/>
	<rect x="0" y="6.3" fill="#1F140F" width="4.2" height="8.4"/>
	<rect x="0" y="12.7" fill="#0C82B9" width="23.2" height="8.4"/>
	<rect x="8.5" y="21.1" fill="#010101" width="12.7" height="4.2"/>
	<rect x="0" y="25.3" fill="#1A9AD7" width="23.2" height="27.4"/>
	<rect x="8.5" y="52.8" fill="#0C82B9" width="12.7" height="6.3"/>
	<polygon fill="#05648D" points="21.1,52.8 21.1,54.9 10.6,54.9 10.6,59.1 8.5,59.1 8.5,52.8 	"/>
	<rect x="10.6" y="59.1" fill="#010101" width="8.4" height="14.8"/>
	<rect x="8.5" y="61.2" fill="#05648D" width="12.7" height="2.1"/>
	<rect x="8.5" y="65.4" fill="#05648D" width="12.7" height="2.1"/>
	<rect x="8.5" y="69.7" fill="#05648D" width="12.7" height="2.1"/>
	<rect x="2.1" y="73.9" fill="#0C82B9" width="19" height="10.6"/>
	<rect x="12.7" y="8.4" fill="#05648D" width="4.2" height="4.2"/>
	<rect x="14.8" y="8.4" fill="#1A9AD7" width="2.1" height="2.1"/>
	<rect x="2.1" y="82.3" fill="#05648D" width="19" height="2.1"/>
	<rect x="8.5" y="61.2" fill="#004260" width="2.1" height="2.1"/>
	<rect x="8.5" y="65.4" fill="#004260" width="2.1" height="2.1"/>
	<rect x="8.5" y="69.7" fill="#004260" width="2.1" height="2.1"/>
	<rect x="16.9" y="42.2" fill="#05648D" width="12.7" height="2.1"/>
	<rect x="16.9" y="38" fill="#05648D" width="12.7" height="2.1"/>
	<rect x="14.8" y="33.8" fill="#05648D" width="12.7" height="2.1"/>
	<rect x="12.7" y="29.6" fill="#05648D" width="12.7" height="2.1"/>
	<rect x="10.6" y="25.3" fill="#05648D" width="12.7" height="2.1"/>
	<rect x="12.7" y="27.4" fill="#010101" width="10.6" height="2.1"/>
	<rect x="14.8" y="31.7" fill="#010101" width="10.6" height="2.1"/>
	<rect x="16.9" y="35.9" fill="#010101" width="10.6" height="2.1"/>
	<rect x="19" y="40.1" fill="#010101" width="8.4" height="2.1"/>
	<rect x="19" y="44.3" fill="#010101" width="8.4" height="2.1"/>
	<rect x="19" y="48.6" fill="#010101" width="8.4" height="2.1"/>
	<polygon fill="#05648D" points="29.6,46.4 29.6,48.6 29.6,50.7 27.5,50.7 27.5,48.6 19,48.6 19,50.7 16.9,50.7 16.9,48.6 
		16.9,46.4 	"/>
	<polygon fill="#1A9AD7" points="16.9,52.8 16.9,50.7 29.6,50.7 29.6,61.2 27.5,61.2 27.5,63.3 23.3,63.3 23.3,57 21.1,57 
		21.1,54.9 19,54.9 19,59.1 14.8,59.1 14.8,52.8 	"/>
	<rect x="27.5" y="50.7" fill="#0C82B9" width="2.1" height="10.6"/>
	<rect x="25.4" y="61.2" fill="#0C82B9" width="2.1" height="2.1"/>
	<rect x="16.9" y="54.9" fill="#0C82B9" width="2.1" height="4.2"/>
	<rect x="21.1" y="25.3" fill="#004260" width="2.1" height="2.1"/>
	<rect x="23.3" y="29.6" fill="#004260" width="2.1" height="2.1"/>
	<rect x="25.4" y="33.8" fill="#004260" width="2.1" height="2.1"/>
	<rect x="27.5" y="38" fill="#004260" width="2.1" height="2.1"/>
	<rect x="27.5" y="42.2" fill="#004260" width="2.1" height="2.1"/>
	<rect x="27.5" y="46.4" fill="#004260" width="2.1" height="2.1"/>
</g>
</svg>
