<?xml version="1.0" encoding="utf-8"?>
<!-- Generator: Adobe Illustrator 18.0.0, SVG Export Plug-In . SVG Version: 6.00 Build 0)  -->
<!DOCTYPE svg PUBLIC "-//W3C//DTD SVG 1.1//EN" "http://www.w3.org/Graphics/SVG/1.1/DTD/svg11.dtd">
<svg version="1.1" id="Layer_1" xmlns="http://www.w3.org/2000/svg" xmlns:xlink="http://www.w3.org/1999/xlink" x="0px" y="0px"
	 viewBox="-91 -1 791 791" enable-background="new -91 -1 791 791" xml:space="preserve">
<g>
	<rect x="191" y="549" fill="#010101" width="76" height="134"/>
	<rect y="396" fill="#05648D" width="115" height="19"/>
	<rect y="358" fill="#05648D" width="115" height="19"/>
	<rect x="19" y="320" fill="#05648D" width="115" height="19"/>
	<rect x="38" y="281.9" fill="#05648D" width="115" height="19"/>
	<rect x="57" y="243" fill="#05648D" width="115" height="19"/>
	<rect x="57" y="262" fill="#010101" width="96" height="19"/>
	<rect x="38" y="300.9" fill="#010101" width="96" height="19"/>
	<rect x="19" y="339" fill="#010101" width="96" height="19"/>
	<rect x="19" y="377" fill="#010101" width="76" height="19"/>
	<rect x="19" y="415" fill="#010101" width="76" height="19"/>
	<rect x="19" y="453.9" fill="#010101" width="76" height="19"/>
	<polygon fill="#05648D" points="0,434 0,453.9 0,473 19,473 19,453.9 96,453.9 96,473 115,473 115,453.9 115,434 	"/>
	<polygon fill="#1A9AD7" points="115,492 115,473 0,473 0,568 19,568 19,587 57,587 57,530 76,530 76,511 96,511 96,549 134,549 
		134,492 	"/>
	<rect y="473" fill="#0C82B9" width="19" height="96"/>
	<rect x="19" y="568" fill="#0C82B9" width="19" height="19"/>
	<rect x="96" y="511" fill="#0C82B9" width="19" height="38"/>
	<rect x="57" y="243" fill="#004260" width="19" height="19"/>
	<rect x="38" y="281.9" fill="#004260" width="19" height="19"/>
	<rect x="19" y="320" fill="#004260" width="19" height="19"/>
	<rect y="358" fill="#004260" width="19" height="19"/>
	<rect y="396" fill="#004260" width="19" height="19"/>
	<rect y="434" fill="#004260" width="19" height="19"/>
	<rect x="497" y="396" fill="#05648D" width="115" height="19"/>
	<rect x="497" y="358" fill="#05648D" width="115" height="19"/>
	<rect x="478" y="320" fill="#05648D" width="115" height="19"/>
	<rect x="459" y="281.9" fill="#05648D" width="115" height="19"/>
	<rect x="440" y="243" fill="#05648D" width="115" height="19"/>
	<rect x="459" y="262" fill="#010101" width="96" height="19"/>
	<rect x="478" y="300.9" fill="#010101" width="96" height="19"/>
	<rect x="497" y="339" fill="#010101" width="96" height="19"/>
	<rect x="516" y="377" fill="#010101" width="76" height="19"/>
	<rect x="516" y="415" fill="#010101" width="76" height="19"/>
	<rect x="516" y="453.9" fill="#010101" width="76" height="19"/>
	<polygon fill="#05648D" points="612,434 612,453.9 612,473 592.1,473 592.1,453.9 516,453.9 516,473 497,473 497,453.9 497,434 	
		"/>
	<polygon fill="#1A9AD7" points="497,492 497,473 612,473 612,568 592.1,568 592.1,587 554.1,587 554.1,530 535,530 535,511 
		516,511 516,549 478,549 478,492 	"/>
	<rect x="592.1" y="473" fill="#0C82B9" width="19" height="96"/>
	<rect x="573.1" y="568" fill="#0C82B9" width="19" height="19"/>
	<rect x="497" y="511" fill="#0C82B9" width="19" height="38"/>
	<rect x="535" y="243" fill="#004260" width="19" height="19"/>
	<rect x="554.1" y="281.9" fill="#004260" width="19" height="19"/>
	<rect x="573.1" y="320" fill="#004260" width="19" height="19"/>
	<rect x="592.1" y="358" fill="#004260" width="19" height="19"/>
	<rect x="592.1" y="396" fill="#004260" width="19" height="19"/>
	<rect x="592.1" y="434" fill="#004260" width="19" height="19"/>
	<polygon fill="#05648D" points="344,33 344,14 325,14 287,14 268,14 268,33 248.1,33 248.1,52 363,52 363,33 	"/>
	<rect x="172" y="52" fill="#3AB8E8" width="268" height="153"/>
	<rect x="115" y="109.9" fill="#010101" width="57" height="19"/>
	<rect x="440" y="109.9" fill="#010101" width="57" height="19"/>
	<rect x="497" y="90" fill="#05648D" width="38" height="38"/>
	<rect x="268" y="14" fill="#1A9AD7" width="38" height="19"/>
	<polygon fill="#0C82B9" points="420.1,128.9 420.1,147.9 401.1,147.9 401.1,167 382,167 382,186 229,186 229,167 210,167 
		210,147.9 191,147.9 191,128.9 172,128.9 172,205 440,205 440,167 440,128.9 	"/>
	<rect x="248.1" y="205" fill="#010101" width="115" height="38"/>
	<rect x="153" y="243" fill="#1A9AD7" width="306" height="248.1"/>
	<rect x="325" y="492" fill="#0C82B9" width="115" height="57"/>
	<rect x="172" y="492" fill="#0C82B9" width="115" height="57"/>
	<polygon fill="#05648D" points="325,492 325,511 420.1,511 420.1,549 440,549 440,492 	"/>
	<polygon fill="#05648D" points="172,492 172,549 191,549 191,511 287,511 287,492 	"/>
	<rect x="344" y="549" fill="#010101" width="76" height="134"/>
	<rect x="325" y="568" fill="#05648D" width="115" height="19"/>
	<rect x="325" y="606" fill="#05648D" width="115" height="19"/>
	<rect x="325" y="645" fill="#05648D" width="115" height="19"/>
	<rect x="172" y="645" fill="#05648D" width="115" height="19"/>
	<rect x="172" y="606" fill="#05648D" width="115" height="19"/>
	<rect x="172" y="568" fill="#05648D" width="115" height="19"/>
	<rect x="115" y="683" fill="#0C82B9" width="172" height="96"/>
	<rect x="325" y="683" fill="#0C82B9" width="172" height="96"/>
	<rect x="497" y="90" fill="#1A9AD7" width="19" height="19"/>
	<rect x="76" y="90" fill="#05648D" width="38" height="38"/>
	<rect x="95.5" y="90" fill="#1A9AD7" width="19" height="19"/>
	<rect x="115" y="759" fill="#05648D" width="172" height="19"/>
	<rect x="325" y="759" fill="#05648D" width="172" height="19"/>
	<rect x="172" y="568" fill="#004260" width="19" height="19"/>
	<rect x="172" y="606" fill="#004260" width="19" height="19"/>
	<rect x="172" y="645" fill="#004260" width="19" height="19"/>
	<rect x="420.1" y="568" fill="#004260" width="19" height="19"/>
	<rect x="420.1" y="606" fill="#004260" width="19" height="19"/>
	<rect x="420.1" y="645" fill="#004260" width="19" height="19"/>
	<rect x="172" y="128.9" fill="#0C82B9" width="268" height="76"/>
</g>
<rect x="-90.5" y="-0.5" opacity="0" fill="#FFFFFF" stroke="#000000" stroke-miterlimit="10" width="790" height="790"/>
</svg>
