<?xml version="1.0" encoding="utf-8"?>
<!-- Generator: Adobe Illustrator 18.0.0, SVG Export Plug-In . SVG Version: 6.00 Build 0)  -->
<!DOCTYPE svg PUBLIC "-//W3C//DTD SVG 1.1//EN" "http://www.w3.org/Graphics/SVG/1.1/DTD/svg11.dtd">
<svg version="1.1" id="Layer_1" xmlns="http://www.w3.org/2000/svg" xmlns:xlink="http://www.w3.org/1999/xlink" x="0px" y="0px"
	 viewBox="-0.5 -0.5 791 793.4" enable-background="new -0.5 -0.5 791 793.4" xml:space="preserve">
<rect opacity="0" fill="#FFFFFF" stroke="#000000" stroke-miterlimit="10" width="790" height="790"/>
<g>
	<polygon fill="#05648D" points="428.1,19.7 428.1,0 408.4,0 369,0 349.3,0 349.3,19.7 328.6,19.7 328.6,39.4 447.8,39.4 
		447.8,19.7 	"/>
	<rect x="308.9" y="39.4" fill="#3AB8E8" width="217.7" height="158.6"/>
	<rect x="349.3" y="0" fill="#1A9AD7" width="39.4" height="19.7"/>
	<rect x="487.2" y="59.1" fill="#1F140F" width="39.4" height="78.8"/>
	<rect x="309.9" y="119.2" fill="#0C82B9" width="217.7" height="78.8"/>
	<rect x="328.6" y="198" fill="#010101" width="119.2" height="39.4"/>
	<rect x="308.9" y="237.4" fill="#1A9AD7" width="217.7" height="257.1"/>
	<rect x="328.6" y="495.5" fill="#0C82B9" width="119.2" height="59.1"/>
	<polygon fill="#05648D" points="328.6,495.5 328.6,515.2 428.1,515.2 428.1,554.6 447.8,554.6 447.8,495.5 	"/>
	<rect x="349.3" y="554.6" fill="#010101" width="78.8" height="138.9"/>
	<rect x="328.6" y="574.3" fill="#05648D" width="119.2" height="19.7"/>
	<rect x="328.6" y="613.7" fill="#05648D" width="119.2" height="19.7"/>
	<rect x="328.6" y="654.1" fill="#05648D" width="119.2" height="19.7"/>
	<rect x="328.6" y="693.5" fill="#0C82B9" width="178.3" height="99.5"/>
	<rect x="369" y="78.8" fill="#05648D" width="39.4" height="39.4"/>
	<rect x="369" y="78.8" fill="#1A9AD7" width="19.7" height="19.7"/>
	<rect x="328.6" y="772.3" fill="#05648D" width="178.3" height="19.7"/>
	<rect x="428.1" y="574.3" fill="#004260" width="19.7" height="19.7"/>
	<rect x="428.1" y="613.7" fill="#004260" width="19.7" height="19.7"/>
	<rect x="428.1" y="654.1" fill="#004260" width="19.7" height="19.7"/>
	<rect x="249.8" y="396" fill="#05648D" width="119.2" height="19.7"/>
	<rect x="249.8" y="356.6" fill="#05648D" width="119.2" height="19.7"/>
	<rect x="269.5" y="317.2" fill="#05648D" width="119.2" height="19.7"/>
	<rect x="289.2" y="277.8" fill="#05648D" width="119.2" height="19.7"/>
	<rect x="308.9" y="237.4" fill="#05648D" width="119.2" height="19.7"/>
	<rect x="308.9" y="257.1" fill="#010101" width="99.5" height="19.7"/>
	<rect x="289.2" y="297.5" fill="#010101" width="99.5" height="19.7"/>
	<rect x="269.5" y="336.9" fill="#010101" width="99.5" height="19.7"/>
	<rect x="269.5" y="376.3" fill="#010101" width="78.8" height="19.7"/>
	<rect x="269.5" y="415.7" fill="#010101" width="78.8" height="19.7"/>
	<rect x="269.5" y="456.1" fill="#010101" width="78.8" height="19.7"/>
	<polygon fill="#05648D" points="249.8,435.4 249.8,456.1 249.8,475.8 269.5,475.8 269.5,456.1 349.3,456.1 349.3,475.8 369,475.8 
		369,456.1 369,435.4 	"/>
	<polygon fill="#1A9AD7" points="369,495.5 369,475.8 249.8,475.8 249.8,574.3 269.5,574.3 269.5,594 308.9,594 308.9,534.9 
		328.6,534.9 328.6,515.2 349.3,515.2 349.3,554.6 388.7,554.6 388.7,495.5 	"/>
	<rect x="249.8" y="475.8" fill="#0C82B9" width="19.7" height="99.5"/>
	<rect x="269.5" y="574.3" fill="#0C82B9" width="19.7" height="19.7"/>
	<rect x="349.3" y="515.2" fill="#0C82B9" width="19.7" height="39.4"/>
	<rect x="308.9" y="237.4" fill="#004260" width="19.7" height="19.7"/>
	<rect x="289.2" y="277.8" fill="#004260" width="19.7" height="19.7"/>
	<rect x="269.5" y="317.2" fill="#004260" width="19.7" height="19.7"/>
	<rect x="249.8" y="356.6" fill="#004260" width="19.7" height="19.7"/>
	<rect x="249.8" y="396" fill="#004260" width="19.7" height="19.7"/>
	<rect x="249.8" y="435.4" fill="#004260" width="19.7" height="19.7"/>
</g>
</svg>
