<?xml version="1.0" encoding="utf-8"?>
<!-- Generator: Adobe Illustrator 18.0.0, SVG Export Plug-In . SVG Version: 6.00 Build 0)  -->
<!DOCTYPE svg PUBLIC "-//W3C//DTD SVG 1.1//EN" "http://www.w3.org/Graphics/SVG/1.1/DTD/svg11.dtd">
<svg version="1.1" id="Layer_1" xmlns="http://www.w3.org/2000/svg" xmlns:xlink="http://www.w3.org/1999/xlink" x="0px" y="0px"
	 viewBox="0 0 19 38" enable-background="new 0 0 19 38" xml:space="preserve">
<rect x="6.3" y="16.9" fill="#05648D" width="12.7" height="2.1"/>
<rect x="6.3" y="12.7" fill="#05648D" width="12.7" height="2.1"/>
<rect x="4.2" y="8.4" fill="#05648D" width="12.7" height="2.1"/>
<rect x="2.1" y="4.2" fill="#05648D" width="12.7" height="2.1"/>
<rect x="0" y="0" fill="#05648D" width="12.7" height="2.1"/>
<rect x="2.1" y="2.1" fill="#010101" width="10.6" height="2.1"/>
<rect x="4.2" y="6.3" fill="#010101" width="10.6" height="2.1"/>
<rect x="6.3" y="10.6" fill="#010101" width="10.6" height="2.1"/>
<rect x="8.4" y="14.8" fill="#010101" width="8.4" height="2.1"/>
<rect x="8.4" y="19" fill="#010101" width="8.4" height="2.1"/>
<rect x="8.4" y="23.2" fill="#010101" width="8.4" height="2.1"/>
<polygon fill="#05648D" points="19,21.1 19,23.2 19,25.3 16.9,25.3 16.9,23.2 8.4,23.2 8.4,25.3 6.3,25.3 6.3,23.2 6.3,21.1 "/>
<polygon fill="#1A9AD7" points="6.3,27.4 6.3,25.3 19,25.3 19,35.9 16.9,35.9 16.9,38 12.7,38 12.7,31.7 10.6,31.7 10.6,29.6 
	8.4,29.6 8.4,33.8 4.2,33.8 4.2,27.4 "/>
<rect x="16.9" y="25.3" fill="#0C82B9" width="2.1" height="10.6"/>
<rect x="14.8" y="35.9" fill="#0C82B9" width="2.1" height="2.1"/>
<rect x="6.3" y="29.6" fill="#0C82B9" width="2.1" height="4.2"/>
<rect x="10.6" y="0" fill="#004260" width="2.1" height="2.1"/>
<rect x="12.7" y="4.2" fill="#004260" width="2.1" height="2.1"/>
<rect x="14.8" y="8.4" fill="#004260" width="2.1" height="2.1"/>
<rect x="16.9" y="12.7" fill="#004260" width="2.1" height="2.1"/>
<rect x="16.9" y="16.9" fill="#004260" width="2.1" height="2.1"/>
<rect x="16.9" y="21.1" fill="#004260" width="2.1" height="2.1"/>
</svg>
