<?xml version="1.0" encoding="utf-8"?>
<!-- Generator: Adobe Illustrator 18.0.0, SVG Export Plug-In . SVG Version: 6.00 Build 0)  -->
<!DOCTYPE svg PUBLIC "-//W3C//DTD SVG 1.1//EN" "http://www.w3.org/Graphics/SVG/1.1/DTD/svg11.dtd">
<svg version="1.1" id="Layer_1" xmlns="http://www.w3.org/2000/svg" xmlns:xlink="http://www.w3.org/1999/xlink" x="0px" y="0px"
	 viewBox="0 0 50.7 25.3" enable-background="new 0 0 50.7 25.3" xml:space="preserve">
<polygon fill="#05648D" points="29.6,2.1 29.6,0 27.4,0 23.2,0 21.1,0 21.1,2.1 19,2.1 19,4.2 31.7,4.2 31.7,2.1 "/>
<rect x="10.6" y="4.2" fill="#3AB8E8" width="29.6" height="16.9"/>
<rect x="4.2" y="10.6" fill="#010101" width="6.3" height="2.1"/>
<rect x="40.1" y="10.6" fill="#010101" width="6.3" height="2.1"/>
<rect x="46.4" y="8.4" fill="#05648D" width="4.2" height="4.2"/>
<rect x="25.3" y="0" fill="#1A9AD7" width="4.2" height="2.1"/>
<rect x="16.9" y="6.3" fill="#1F140F" width="4.2" height="8.4"/>
<rect x="29.6" y="6.3" fill="#1F140F" width="4.2" height="8.4"/>
<polygon fill="#0C82B9" points="38,12.7 38,14.8 35.9,14.8 35.9,16.9 33.8,16.9 33.8,19 16.9,19 16.9,16.9 14.8,16.9 14.8,14.8 
	12.7,14.8 12.7,12.7 10.6,12.7 10.6,21.1 40.1,21.1 40.1,16.9 40.1,12.7 "/>
<rect x="19" y="21.1" fill="#010101" width="12.7" height="4.2"/>
<rect x="48.6" y="8.4" fill="#1A9AD7" width="2.1" height="2.1"/>
<rect x="0" y="8.4" fill="#05648D" width="4.2" height="4.2"/>
<rect x="0" y="8.4" fill="#1A9AD7" width="2.1" height="2.1"/>
</svg>
