<?xml version="1.0" encoding="utf-8"?>
<!-- Generator: Adobe Illustrator 18.0.0, SVG Export Plug-In . SVG Version: 6.00 Build 0)  -->
<!DOCTYPE svg PUBLIC "-//W3C//DTD SVG 1.1//EN" "http://www.w3.org/Graphics/SVG/1.1/DTD/svg11.dtd">
<svg version="1.1" id="Layer_1" xmlns="http://www.w3.org/2000/svg" xmlns:xlink="http://www.w3.org/1999/xlink" x="0px" y="0px"
	 viewBox="0 0 67.6 84.4" enable-background="new 0 0 67.6 84.4" xml:space="preserve">
<g>
	<rect x="21.1" y="59.1" fill="#010101" width="8.4" height="14.8"/>
	<rect x="0" y="42.2" fill="#05648D" width="12.7" height="2.1"/>
	<rect x="0" y="38" fill="#05648D" width="12.7" height="2.1"/>
	<rect x="2.1" y="33.8" fill="#05648D" width="12.7" height="2.1"/>
	<rect x="4.2" y="29.6" fill="#05648D" width="12.7" height="2.1"/>
	<rect x="6.3" y="25.3" fill="#05648D" width="12.7" height="2.1"/>
	<rect x="6.3" y="27.4" fill="#010101" width="10.6" height="2.1"/>
	<rect x="4.2" y="31.7" fill="#010101" width="10.6" height="2.1"/>
	<rect x="2.1" y="35.9" fill="#010101" width="10.6" height="2.1"/>
	<rect x="2.1" y="40.1" fill="#010101" width="8.4" height="2.1"/>
	<rect x="2.1" y="44.3" fill="#010101" width="8.4" height="2.1"/>
	<rect x="2.1" y="48.6" fill="#010101" width="8.4" height="2.1"/>
	<polygon fill="#05648D" points="0,46.4 0,48.6 0,50.7 2.1,50.7 2.1,48.6 10.6,48.6 10.6,50.7 12.7,50.7 12.7,48.6 12.7,46.4 	"/>
	<polygon fill="#1A9AD7" points="12.7,52.8 12.7,50.7 0,50.7 0,61.2 2.1,61.2 2.1,63.3 6.3,63.3 6.3,57 8.4,57 8.4,54.9 10.6,54.9 
		10.6,59.1 14.8,59.1 14.8,52.8 	"/>
	<rect x="0" y="50.7" fill="#0C82B9" width="2.1" height="10.6"/>
	<rect x="2.1" y="61.2" fill="#0C82B9" width="2.1" height="2.1"/>
	<rect x="10.6" y="54.9" fill="#0C82B9" width="2.1" height="4.2"/>
	<rect x="6.3" y="25.3" fill="#004260" width="2.1" height="2.1"/>
	<rect x="4.2" y="29.6" fill="#004260" width="2.1" height="2.1"/>
	<rect x="2.1" y="33.8" fill="#004260" width="2.1" height="2.1"/>
	<rect x="0" y="38" fill="#004260" width="2.1" height="2.1"/>
	<rect x="0" y="42.2" fill="#004260" width="2.1" height="2.1"/>
	<rect x="0" y="46.4" fill="#004260" width="2.1" height="2.1"/>
	<rect x="54.9" y="42.2" fill="#05648D" width="12.7" height="2.1"/>
	<rect x="54.9" y="38" fill="#05648D" width="12.7" height="2.1"/>
	<rect x="52.8" y="33.8" fill="#05648D" width="12.7" height="2.1"/>
	<rect x="50.7" y="29.6" fill="#05648D" width="12.7" height="2.1"/>
	<rect x="48.6" y="25.3" fill="#05648D" width="12.7" height="2.1"/>
	<rect x="50.7" y="27.4" fill="#010101" width="10.6" height="2.1"/>
	<rect x="52.8" y="31.7" fill="#010101" width="10.6" height="2.1"/>
	<rect x="54.9" y="35.9" fill="#010101" width="10.6" height="2.1"/>
	<rect x="57" y="40.1" fill="#010101" width="8.4" height="2.1"/>
	<rect x="57" y="44.3" fill="#010101" width="8.4" height="2.1"/>
	<rect x="57" y="48.6" fill="#010101" width="8.4" height="2.1"/>
	<polygon fill="#05648D" points="67.6,46.4 67.6,48.6 67.6,50.7 65.4,50.7 65.4,48.6 57,48.6 57,50.7 54.9,50.7 54.9,48.6 
		54.9,46.4 	"/>
	<polygon fill="#1A9AD7" points="54.9,52.8 54.9,50.7 67.6,50.7 67.6,61.2 65.4,61.2 65.4,63.3 61.2,63.3 61.2,57 59.1,57 
		59.1,54.9 57,54.9 57,59.1 52.8,59.1 52.8,52.8 	"/>
	<rect x="65.4" y="50.7" fill="#0C82B9" width="2.1" height="10.6"/>
	<rect x="63.3" y="61.2" fill="#0C82B9" width="2.1" height="2.1"/>
	<rect x="54.9" y="54.9" fill="#0C82B9" width="2.1" height="4.2"/>
	<rect x="59.1" y="25.3" fill="#004260" width="2.1" height="2.1"/>
	<rect x="61.2" y="29.6" fill="#004260" width="2.1" height="2.1"/>
	<rect x="63.3" y="33.8" fill="#004260" width="2.1" height="2.1"/>
	<rect x="65.4" y="38" fill="#004260" width="2.1" height="2.1"/>
	<rect x="65.4" y="42.2" fill="#004260" width="2.1" height="2.1"/>
	<rect x="65.4" y="46.4" fill="#004260" width="2.1" height="2.1"/>
	<polygon fill="#05648D" points="38,2.1 38,0 35.9,0 31.7,0 29.6,0 29.6,2.1 27.4,2.1 27.4,4.2 40.1,4.2 40.1,2.1 	"/>
	<rect x="19" y="4.2" fill="#3AB8E8" width="29.6" height="16.9"/>
	<rect x="12.7" y="10.6" fill="#010101" width="6.3" height="2.1"/>
	<rect x="48.6" y="10.6" fill="#010101" width="6.3" height="2.1"/>
	<rect x="54.9" y="10.4" fill="#05648D" width="4.2" height="4.2"/>
	<rect x="33.8" y="0" fill="#1A9AD7" width="4.2" height="2.1"/>
	<rect x="25.3" y="13.7" fill="#1F140F" width="4.2" height="2.1"/>
	<rect x="38" y="13.7" fill="#1F140F" width="4.2" height="2.1"/>
	<polygon fill="#0C82B9" points="46.4,21.1 46.4,20.1 44.3,20.1 44.3,19 42.2,19 42.2,17.9 25.3,17.9 25.3,19 23.2,19 23.2,20.1 
		21.1,20.1 21.1,21.1 19,21.1 19,16.9 48.6,16.9 48.6,19 48.6,21.1 	"/>
	<rect x="27.4" y="21.1" fill="#010101" width="12.7" height="4.2"/>
	<rect x="16.9" y="25.3" fill="#1A9AD7" width="33.8" height="27.4"/>
	<rect x="23.2" y="29.6" fill="#8CCFF1" width="21.1" height="19"/>
	<polygon fill="#05648D" points="40.1,46.4 40.1,44.3 38,44.3 38,42.2 35.9,42.2 35.9,40.1 33.8,40.1 33.8,38 31.7,38 31.7,35.9 
		29.6,35.9 29.6,33.8 27.4,33.8 27.4,31.7 25.3,31.7 25.3,29.6 23.2,29.6 23.2,46.4 23.2,48.6 42.2,48.6 42.2,46.4 	"/>
	<rect x="35.9" y="52.8" fill="#0C82B9" width="12.7" height="6.3"/>
	<rect x="19" y="52.8" fill="#0C82B9" width="12.7" height="6.3"/>
	<polygon fill="#05648D" points="35.9,52.8 35.9,54.9 46.4,54.9 46.4,59.1 48.6,59.1 48.6,52.8 	"/>
	<polygon fill="#05648D" points="19,52.8 19,59.1 21.1,59.1 21.1,54.9 31.7,54.9 31.7,52.8 	"/>
	<rect x="38" y="59.1" fill="#010101" width="8.4" height="14.8"/>
	<rect x="35.9" y="61.2" fill="#05648D" width="12.7" height="2.1"/>
	<rect x="35.9" y="65.4" fill="#05648D" width="12.7" height="2.1"/>
	<rect x="35.9" y="69.7" fill="#05648D" width="12.7" height="2.1"/>
	<rect x="19" y="69.7" fill="#05648D" width="12.7" height="2.1"/>
	<rect x="19" y="65.4" fill="#05648D" width="12.7" height="2.1"/>
	<rect x="19" y="61.2" fill="#05648D" width="12.7" height="2.1"/>
	<rect x="12.7" y="73.9" fill="#0C82B9" width="19" height="10.6"/>
	<rect x="35.9" y="73.9" fill="#0C82B9" width="19" height="10.6"/>
	<rect x="57" y="10.4" fill="#1A9AD7" width="2.1" height="2.1"/>
	<rect x="8.4" y="10.4" fill="#05648D" width="4.2" height="4.2"/>
	<rect x="8.4" y="10.4" fill="#1A9AD7" width="2.1" height="2.1"/>
	<rect x="12.7" y="82.3" fill="#05648D" width="19" height="2.1"/>
	<rect x="35.9" y="82.3" fill="#05648D" width="19" height="2.1"/>
	<rect x="19" y="61.2" fill="#004260" width="2.1" height="2.1"/>
	<rect x="19" y="65.4" fill="#004260" width="2.1" height="2.1"/>
	<rect x="19" y="69.7" fill="#004260" width="2.1" height="2.1"/>
	<rect x="46.4" y="61.2" fill="#004260" width="2.1" height="2.1"/>
	<rect x="46.4" y="65.4" fill="#004260" width="2.1" height="2.1"/>
	<rect x="46.4" y="69.7" fill="#004260" width="2.1" height="2.1"/>
</g>
</svg>
